<?xml version="1.0" encoding="UTF-8"?> <svg xmlns="http://www.w3.org/2000/svg" xmlns:xlink="http://www.w3.org/1999/xlink" width="732.427" height="157.164" viewBox="0 0 732.427 157.164"><defs><linearGradient id="linear-gradient" x1="1.188" y1="0.893" x2="-0.188" y2="0.107" gradientUnits="objectBoundingBox"><stop offset="0" stop-color="#f6edbc"></stop><stop offset="0.05" stop-color="#ecdead"></stop><stop offset="0.206" stop-color="#d3b786"></stop><stop offset="0.349" stop-color="#c19b6a"></stop><stop offset="0.473" stop-color="#b58a59"></stop><stop offset="0.565" stop-color="#b28453"></stop><stop offset="0.719" stop-color="#b58756"></stop><stop offset="0.873" stop-color="#c1925f"></stop><stop offset="1" stop-color="#d2a26d"></stop></linearGradient><linearGradient id="linear-gradient-2" x1="0.927" y1="1.04" x2="0.071" y2="0.138" xlink:href="#linear-gradient"></linearGradient><linearGradient id="linear-gradient-4" x1="1.027" y1="0.982" x2="-0.221" y2="0.148" xlink:href="#linear-gradient"></linearGradient><linearGradient id="linear-gradient-5" x1="0.901" y1="1.09" x2="0.099" y2="0.363" xlink:href="#linear-gradient"></linearGradient></defs><g id="Group_1085" data-name="Group 1085" transform="translate(-313.822 -190.243)"><path id="Path_8461" data-name="Path 8461" d="M313.822,341.559V196.4H396.7v20.028H336.792v36.383H396.7v20.73H336.792v46.9H396.7v21.122Z" fill="url(#linear-gradient)"></path><path id="Path_8462" data-name="Path 8462" d="M563.977,253.5l-42.735,93.9-42.734-93.458L459.573,341.56H438.436l33.388-151.317s47.359,104.924,49.418,109.692c2.2-4.7,48.838-109.692,48.838-109.692L604.238,341.56H582.912Z" fill="url(#linear-gradient-2)"></path><path id="Path_8463" data-name="Path 8463" d="M646.294,341.559V196.4h82.882v20.028H669.257v36.383h59.919v20.73H669.257v46.9h59.919v21.122Z" fill="url(#linear-gradient)"></path><path id="Path_8464" data-name="Path 8464" d="M794.315,276.616v64.943H771V196.4h32.038q14.1,0,21.861,1.886a34.007,34.007,0,0,1,13.269,6.238A34.416,34.416,0,0,1,848.3,218.107a45.7,45.7,0,0,1,3.575,18.256q0,17.438-8.2,27.316t-24.222,11.843l48.633,66.037H842.127Zm-.346-18.354h4.149q18.228,0,24.229-4.352,5.976-4.368,5.975-15.472,0-12-6.412-16.906-6.427-4.911-23.792-4.911h-4.149Z" fill="url(#linear-gradient-4)"></path><path id="Path_8465" data-name="Path 8465" d="M977.919,190.643,909.5,341.56h24.124s43.263-98.761,44.492-101.823c1.494,3.334,43.912,101.823,43.912,101.823h24.223Z" fill="url(#linear-gradient-5)"></path></g></svg> 