<svg xmlns="http://www.w3.org/2000/svg" xmlns:xlink="http://www.w3.org/1999/xlink" width="38.027" height="44.365" viewBox="0 0 38.027 44.365">
  <defs>
    <linearGradient id="linear-gradient" x1="0.5" x2="0.5" y2="1" gradientUnits="objectBoundingBox">
      <stop offset="0" stop-color="#03a586"/>
      <stop offset="0.151" stop-color="#1dc9a7"/>
      <stop offset="1" stop-color="#028772"/>
    </linearGradient>
  </defs>
  <g id="facebook" transform="translate(14.153 12.183)">
    <g id="Polygon_18" data-name="Polygon 18" transform="translate(23.874 -12.183) rotate(90)" fill="none">
      <path d="M30.4,0a5,5,0,0,1,4.319,2.481L42.9,16.494a5,5,0,0,1,0,5.039L34.721,35.547A5,5,0,0,1,30.4,38.027H13.963a5,5,0,0,1-4.319-2.481L1.47,21.533a5,5,0,0,1,0-5.039L9.644,2.481A5,5,0,0,1,13.963,0Z" stroke="none"/>
      <path d="M 13.96315956115723 1 C 12.5460205078125 1 11.22209930419922 1.760421752929688 10.50804138183594 2.984512329101562 L 2.333400726318359 16.99818229675293 C 1.608200073242188 18.24138259887695 1.608200073242188 19.78595161437988 2.333400726318359 21.02915191650391 L 10.50804138183594 35.04283142089844 C 11.22208786010742 36.26692199707031 12.5460090637207 37.02734375 13.96315956115723 37.02734375 L 30.40205955505371 37.02734375 C 31.81921005249023 37.02734375 33.14312744140625 36.26692199707031 33.85717010498047 35.04282379150391 L 42.03181838989258 21.02915191650391 C 42.75701904296875 19.78596115112305 42.75701904296875 18.24138259887695 42.03181838989258 16.99819183349609 L 33.85717010498047 2.984512329101562 C 33.14312744140625 1.760421752929688 31.81921005249023 1 30.40205955505371 1 L 13.96315956115723 1 M 13.96315956115723 0 L 30.40205955505371 0 C 32.18040084838867 0 33.82490921020508 0.9445533752441406 34.720947265625 2.480640411376953 L 42.89559936523438 16.49432182312012 C 43.80374145507812 18.05113220214844 43.80374145507812 19.97621154785156 42.89559936523438 21.53302192687988 L 34.720947265625 35.54669189453125 C 33.82490921020508 37.08279037475586 32.18040084838867 38.02734375 30.40205955505371 38.02734375 L 13.96315956115723 38.02734375 C 12.18481826782227 38.02734375 10.54030990600586 37.08279037475586 9.644260406494141 35.54670333862305 L 1.469619750976562 21.53302192687988 C 0.5614776611328125 19.97621154785156 0.5614776611328125 18.05112266540527 1.469619750976562 16.49431228637695 L 9.644260406494141 2.480640411376953 C 10.54032135009766 0.9445533752441406 12.18481826782227 0 13.96315956115723 0 Z" stroke="none" fill="#05a687"/>
    </g>
    <path id="facebook-2" data-name="facebook" d="M2.482,20V10.616H0V7.237H2.482V4.351C2.482,2.083,3.947,0,7.325,0A20.507,20.507,0,0,1,9.7.131L9.624,3.287s-1.031-.01-2.157-.01c-1.218,0-1.413.561-1.413,1.493V7.237H9.721l-.159,3.379H6.054V20H2.482" fill="url(#linear-gradient)"/>
  </g>
</svg>
