<svg xmlns="http://www.w3.org/2000/svg" width="610.358" height="225.485" viewBox="0 0 610.358 225.485">
  <g id="Group_1183" data-name="Group 1183" transform="translate(-641.695 -179.596)">
    <g id="Group_1181" data-name="Group 1181">
      <path id="Path_8754" data-name="Path 8754" d="M709.9,351.66a77.479,77.479,0,0,1-3.375,9.262,55.776,55.776,0,0,1-11.224,1.473c-14.66,0-22.145-9.753-22.145-20.488,0-12.513,9.508-21.162,23.248-21.162A62.683,62.683,0,0,1,708,322.155c.246,2.761.676,6.441,1.166,9.508l-1.9.43c-1.227-4.11-2.7-6.625-5.826-7.913a16.769,16.769,0,0,0-6.442-1.166c-10.121,0-15.457,7.484-15.457,17.6,0,11.839,6.133,19.445,16.07,19.445,6.258,0,9.325-2.883,12.454-9.017Z" fill="#045e50"/>
      <path id="Path_8755" data-name="Path 8755" d="M756.758,361.965c-.8,0-1.473-.061-2.27-.122-4.478-.307-6.871-1.472-9.568-5.276-2.27-3.128-4.479-6.992-6.441-10.121-1.227-1.963-2.026-2.331-5.153-2.331H731.18v9.631c0,5.213.674,5.521,5.582,6.011v1.718H720.383v-1.718c5.092-.552,5.521-.8,5.521-6.011V329.271c0-5.214-.675-5.4-5.521-5.95V321.6h15.642c4.477,0,7.483.551,9.815,2.085a9.167,9.167,0,0,1,4.17,8.1c0,5.275-3.373,8.588-7.912,10.55,1.1,1.9,3.742,6.012,5.582,8.772a56.312,56.312,0,0,0,4.845,6.318A8.83,8.83,0,0,0,757,360.248ZM734.123,342.03c3.19,0,5.215-.491,6.748-1.779,2.393-1.779,3.373-4.232,3.373-7.545,0-6.563-4.355-8.956-9.078-8.956-1.779,0-2.822.246-3.252.614-.551.429-.734,1.042-.734,2.637V342.03Z" fill="#045e50"/>
      <path id="Path_8756" data-name="Path 8756" d="M795.582,351.722c-.369,1.594-2.025,7.912-2.639,9.753h-29.81v-1.718c5.705-.429,6.135-.982,6.135-6.011v-24.23c0-5.459-.676-5.766-5.276-6.195V321.6h18.77c5.765,0,8.158-.062,8.894-.124.061,1.534.307,6.135.553,9.386l-1.842.306a20.326,20.326,0,0,0-1.84-4.661c-.98-2.025-2.392-2.454-6.072-2.454h-5.828c-1.9,0-2.023.184-2.023,1.963v13.556h6.808c4.6,0,4.908-.92,5.643-5.091h1.9v12.636h-1.9c-.8-4.416-1.287-5.03-5.7-5.03H774.6V354.3c0,4.294,1.349,4.661,4.416,4.723h5.7c3.742,0,4.355-.552,5.705-2.147a26.374,26.374,0,0,0,3.312-5.643Z" fill="#045e50"/>
      <path id="Path_8757" data-name="Path 8757" d="M825.145,361.475v-1.718c3.986-.49,4.478-1.1,3.619-3.435-.8-2.392-2.024-5.459-3.313-9.324H812.2c-.98,2.761-1.9,5.153-2.76,7.668-1.349,3.987-.49,4.478,4.539,5.091v1.718H799.811v-1.718c3.865-.49,4.845-.92,6.992-6.441l12.7-32.2,1.963-.368c3.863,10.489,8.1,22.082,11.961,32.694,1.963,5.336,2.513,5.828,6.869,6.318v1.718Zm-6.135-32.7c-1.963,5.276-4.047,10.858-5.889,15.7h11.471Z" fill="#045e50"/>
      <path id="Path_8758" data-name="Path 8758" d="M874.705,331.234a23.347,23.347,0,0,0-1.963-5.091c-.982-1.657-1.6-2.086-4.969-2.086h-6.134V353.93c0,4.784.49,5.459,6.318,5.827v1.718h-17.85v-1.718c5.706-.368,6.2-.982,6.2-5.827V324.057h-5.582c-3.375,0-4.356.368-5.4,2.208a28.006,28.006,0,0,0-2.023,4.969h-1.842c.369-3.742.736-7.607.922-11.042h1.41c.92,1.473,1.594,1.412,3.313,1.412h24.291c1.716,0,2.207-.246,3.127-1.412h1.472c0,2.884.246,7.3.553,10.858Z" fill="#045e50"/>
      <path id="Path_8759" data-name="Path 8759" d="M918.008,351.722c-.369,1.594-2.026,7.912-2.639,9.753h-29.81v-1.718c5.7-.429,6.134-.982,6.134-6.011v-24.23c0-5.459-.675-5.766-5.275-6.195V321.6h18.77c5.765,0,8.158-.062,8.894-.124.061,1.534.307,6.135.553,9.386l-1.842.306a20.326,20.326,0,0,0-1.84-4.661c-.98-2.025-2.392-2.454-6.072-2.454h-5.828c-1.9,0-2.024.184-2.024,1.963v13.556h6.809c4.6,0,4.908-.92,5.642-5.091h1.9v12.636h-1.9c-.8-4.416-1.287-5.03-5.7-5.03h-6.748V354.3c0,4.294,1.35,4.661,4.416,4.723h5.705c3.743,0,4.356-.552,5.7-2.147a26.333,26.333,0,0,0,3.313-5.643Z" fill="#045e50"/>
      <path id="Path_8760" data-name="Path 8760" d="M971.291,303.259q-1.553,4.588-4.25,10.658t-5.6,12.885q-.741,1.755-1.99,5.127t-2.529,7.521q-1.284,4.149-2.461,8.7a74.54,74.54,0,0,0-1.754,8.8,42.651,42.651,0,0,0-.406,7.724,10.791,10.791,0,0,0,1.517,5.5A4.805,4.805,0,0,0,957.9,372.3q2.731.1,7.252-2.394a28.921,28.921,0,0,0,6.78-5.2,56.223,56.223,0,0,0,6.138-7.42,86.849,86.849,0,0,0,5.364-8.8q2.493-4.687,4.451-9.343.876-2.225,1.855-4.688t1.787-5.025a38.157,38.157,0,0,0,1.248-5.2,28.018,28.018,0,0,0,.371-5.329,6.337,6.337,0,0,1,.473-3.2,2.428,2.428,0,0,1,1.383-1.45q.774-.2,1.449.776a7.026,7.026,0,0,1,.811,3.406,50.413,50.413,0,0,1-.641,10.422q-.91,6.037-2.26,12.986a213.652,213.652,0,0,0-3.306,21.822,175.816,175.816,0,0,0-.742,21.283,44.059,44.059,0,0,0,.642,7.589,14.476,14.476,0,0,0,1.584,4.62,5.421,5.421,0,0,0,2.4,2.294,7.565,7.565,0,0,0,3.07.607,11.657,11.657,0,0,0,4.891-1.248,26.38,26.38,0,0,0,5.429-3.508,42.723,42.723,0,0,0,5.531-5.531,60.589,60.589,0,0,0,5.262-7.319,168.226,168.226,0,0,0,15.852-34.167,149.386,149.386,0,0,0,7.422-36.933q.4-5.733.336-10.759a63.435,63.435,0,0,0-.707-9.039,26.025,26.025,0,0,0-1.924-6.78,8.722,8.722,0,0,0-3.3-3.98q-1.282-.674-1.248-1.686a1.894,1.894,0,0,1,.877-1.586,3.119,3.119,0,0,1,2.193-.4,4.423,4.423,0,0,1,2.7,1.788,12.267,12.267,0,0,1,2.293,4.958,52.9,52.9,0,0,1,1.349,7.926q.472,4.589.539,10.186t-.135,11.737a176.057,176.057,0,0,1-2.056,20.912,153.562,153.562,0,0,1-4.588,20.136,124.386,124.386,0,0,1-7.25,18.618,95.807,95.807,0,0,1-10.053,16.358,60.175,60.175,0,0,1-6.2,6.914,40.446,40.446,0,0,1-6.51,5.093,24.058,24.058,0,0,1-6.441,2.867,11.641,11.641,0,0,1-5.869.169,9.8,9.8,0,0,1-3.508-1.855,11.169,11.169,0,0,1-2.8-3.575,22.03,22.03,0,0,1-1.89-5.5,38.6,38.6,0,0,1-.776-7.555q-.135-5.937.1-11.636t.709-11.266q.471-5.565,1.213-11.164t1.687-11.4a95.863,95.863,0,0,1-5.059,9.882,86.146,86.146,0,0,1-6.275,9.309,68.241,68.241,0,0,1-7.049,7.825,35.046,35.046,0,0,1-7.453,5.5q-4.857,2.564-8.06,2.462a6.725,6.725,0,0,1-5.028-2.125,11.322,11.322,0,0,1-2.494-5.6,37.054,37.054,0,0,1-.541-7.993,78.227,78.227,0,0,1,.877-9.309q.741-4.891,1.754-9.579t2.125-8.8q1.113-4.115,1.924-6.948,1.347-4.654,2.73-9.006t2.631-7.892q1.248-3.541,2.227-6a30.871,30.871,0,0,1,1.517-3.406,4.427,4.427,0,0,1,2.664-2.328,3.011,3.011,0,0,1,2.532.506,4.336,4.336,0,0,1,1.517,2.428A5.278,5.278,0,0,1,971.291,303.259Z" fill="#045e50"/>
      <path id="Path_8761" data-name="Path 8761" d="M1052.508,356.888a8.637,8.637,0,0,1-.844-3,16.8,16.8,0,0,1,0-3.34,17.251,17.251,0,0,1,.676-3.338,22.423,22.423,0,0,1,1.18-3.07,18.905,18.905,0,0,1,3.339-4.789,17.807,17.807,0,0,1,4.621-3.508,16.585,16.585,0,0,1,5.532-1.754,14.786,14.786,0,0,1,6.07.473,1.553,1.553,0,0,1,.844,1.281,1.451,1.451,0,0,1-.608,1.113,2.582,2.582,0,0,1-1.517.472,2.955,2.955,0,0,1-1.822-.573,5.1,5.1,0,0,0-3.643-.574,6.33,6.33,0,0,0-2.934,1.822,12.483,12.483,0,0,0-2.259,3.44,25.3,25.3,0,0,0-1.518,4.284,35.5,35.5,0,0,0-.844,4.317,20.421,20.421,0,0,0-.2,3.507q.132,1.755,1.147,2.125t2.427-1.045a11.175,11.175,0,0,0,1.688-2.26,19.84,19.84,0,0,0,1.383-2.867q.57-1.482.943-2.8a12.139,12.139,0,0,0,.439-2.125,6.191,6.191,0,0,1-2.9-1.653,2.706,2.706,0,0,1-.74-1.922,2.464,2.464,0,0,1,.74-1.619,2.41,2.41,0,0,1,1.553-.742,2.331,2.331,0,0,1,1.754.742,5.555,5.555,0,0,1,1.349,2.833,33.187,33.187,0,0,0,4.688.371q2.528.035,5.094-.1t5.025-.472a39.993,39.993,0,0,0,4.553-.877,6.225,6.225,0,0,1,3.136-.3c.516.2.731.506.641.911a2.574,2.574,0,0,1-.91,1.281,3.286,3.286,0,0,1-1.451.81q-2.16.54-4.688.911t-5.228.506q-2.7.135-5.364.067a43.109,43.109,0,0,1-5.025-.4,15.2,15.2,0,0,1-.371,3.2,24.606,24.606,0,0,1-1.012,3.441,18.755,18.755,0,0,1-1.619,3.3,12.3,12.3,0,0,1-2.26,2.732,8.472,8.472,0,0,1-2.664,1.653,8.383,8.383,0,0,1-3.17.641,6.377,6.377,0,0,1-3-.742A5.167,5.167,0,0,1,1052.508,356.888Z" fill="#045e50"/>
      <path id="Path_8762" data-name="Path 8762" d="M1104.314,343.666q-.133-.268-.978.843t-2.09,2.934q-1.251,1.822-2.7,4.149t-2.766,4.52q-1.315,2.193-2.427,4.047t-1.586,2.732a9.2,9.2,0,0,1-1.518,1.552,2.635,2.635,0,0,1-1.652.607,2.542,2.542,0,0,1-1.823-.641,5.183,5.183,0,0,1-1.113-1.585,8.6,8.6,0,0,1-.641-2.024,18.127,18.127,0,0,1-.269-2.024,27.729,27.729,0,0,1,.2-6.273,56.052,56.052,0,0,1,1.449-7.286,53.188,53.188,0,0,1,2.328-6.846,19.4,19.4,0,0,1,2.766-4.891,5.005,5.005,0,0,1,2.26-1.653,3.577,3.577,0,0,1,2.158-.067,2.415,2.415,0,0,1,1.451,1.147,2.357,2.357,0,0,1,.135,1.922,55.256,55.256,0,0,1-2.023,5.363q-1.419,3.339-2.868,6.982t-2.6,7.083a23.131,23.131,0,0,0-1.282,5.734v.438a1.626,1.626,0,0,0,.067.506.313.313,0,0,0,.236.236c.111.023.281-.1.506-.371q.2-.268.979-1.653t1.957-3.44q1.177-2.057,2.664-4.519t3.136-4.824a54.478,54.478,0,0,1,3.373-4.351,22,22,0,0,1,3.338-3.2,5.749,5.749,0,0,1,2.936-1.248,2.649,2.649,0,0,1,2.394,1.315,4.1,4.1,0,0,1,.608,2.732,20.34,20.34,0,0,1-.641,3.542q-.507,1.89-1.047,3.879a15.392,15.392,0,0,0-.572,3.71,5.669,5.669,0,0,0,.674,2.968,4.019,4.019,0,0,0,2.8,1.72,6.6,6.6,0,0,0,3.677-.27,22.717,22.717,0,0,0,4.317-1.99,41.088,41.088,0,0,0,4.555-3.1q2.29-1.785,4.382-3.71t3.879-3.777q1.788-1.855,3-3.339a3.084,3.084,0,0,1,1.485-1.215,1.66,1.66,0,0,1,1.316,0,.972.972,0,0,1,.437,1.046,3.447,3.447,0,0,1-1.078,1.855q-2.226,2.631-5.363,5.835a54.546,54.546,0,0,1-6.779,5.869,37.879,37.879,0,0,1-7.522,4.317,15.006,15.006,0,0,1-7.59,1.248,7.839,7.839,0,0,1-4.486-1.754,8.533,8.533,0,0,1-2.494-3.643,12.52,12.52,0,0,1-.676-4.755,18.117,18.117,0,0,1,.91-5.026c.09-.27.17-.539.237-.809S1104.4,343.757,1104.314,343.666Z" fill="#045e50"/>
      <path id="Path_8763" data-name="Path 8763" d="M1133.59,349.333a16.739,16.739,0,0,1,.877-4.689,24.858,24.858,0,0,1,2.226-4.857,25.5,25.5,0,0,1,3.307-4.418,19.365,19.365,0,0,1,4.113-3.373,13.113,13.113,0,0,1,4.756-1.754,10.439,10.439,0,0,1,5.094.472q1.752-7.69,3.744-14.537t4.014-12.277a92.369,92.369,0,0,1,3.945-9.241,20.674,20.674,0,0,1,3.678-5.5,10.389,10.389,0,0,1,3.371-2.7,5.357,5.357,0,0,1,3.373-.574,3.571,3.571,0,0,1,2.463,1.99,9.189,9.189,0,0,1,.64,4.992,33.073,33.073,0,0,1-1.382,6.611,76.135,76.135,0,0,1-2.8,7.589q-1.687,3.946-3.813,8.061t-4.384,8.128q-2.259,4.016-4.485,7.69t-4.183,6.78q-1.687,4.386-3.137,9.343t-2.5,10.118a101.418,101.418,0,0,0-1.555,10.456,69.032,69.032,0,0,0-.232,10.422,22.287,22.287,0,0,0,1.99,8.837,11.713,11.713,0,0,0,5.228,5.261q1.213.675,1.248,1.552a1.655,1.655,0,0,1-.742,1.45,3.171,3.171,0,0,1-2.16.473,5.211,5.211,0,0,1-2.934-1.451,13.568,13.568,0,0,1-3.435-6.138,42.906,42.906,0,0,1-1.557-9.512,102.135,102.135,0,0,1,.356-16.088q.823-8.8,2.41-18.045-1.306,2.093-2.947,4.452a30.736,30.736,0,0,1-3.494,4.216,13.05,13.05,0,0,1-3.913,2.766,5.192,5.192,0,0,1-4.216.033,4.07,4.07,0,0,1-2.362-2.562A10.757,10.757,0,0,1,1133.59,349.333Zm19.631-15.786a3.751,3.751,0,0,0-3.846-.033,12.592,12.592,0,0,0-3.508,2.968,21.4,21.4,0,0,0-2.765,4.216,29.971,29.971,0,0,0-1.62,3.71,8.7,8.7,0,0,0-.4,1.316q-.2.843-.338,1.754a7.726,7.726,0,0,0-.066,1.753,2.6,2.6,0,0,0,.4,1.315q.405.474,1.721-.775a27,27,0,0,0,3.068-3.677q1.755-2.427,3.744-5.7A63.827,63.827,0,0,0,1153.221,333.547Zm15.717-30.827a80.462,80.462,0,0,0-5.059,12.378q-2.226,6.915-3.912,13.93,1.617-2.9,3.338-6.105t3.373-6.476q1.652-3.27,3.136-6.577t2.7-6.341a41.712,41.712,0,0,0,2.09-6.408q.406-2.09-.2-2.125t-2.058,1.922A42.718,42.718,0,0,0,1168.938,302.72Z" fill="#045e50"/>
      <path id="Path_8764" data-name="Path 8764" d="M1172.85,338.472a24.019,24.019,0,0,1,2.293-2.766,18.885,18.885,0,0,1,2.968-2.53,12.166,12.166,0,0,1,3.442-1.652,7.652,7.652,0,0,1,3.777-.135,5.53,5.53,0,0,1,2.766,1.349,3.509,3.509,0,0,1,1.078,2.091,3.163,3.163,0,0,1-.742,2.53,8.123,8.123,0,0,1-2.6,2.057,15.754,15.754,0,0,1-3.846,1.383,17.582,17.582,0,0,1-4.486.439,30.226,30.226,0,0,0-1.248,3.507,13.715,13.715,0,0,0-.572,3.879,8.08,8.08,0,0,0,.775,3.542,4.97,4.97,0,0,0,2.8,2.428,8.35,8.35,0,0,0,4.824.371,25.061,25.061,0,0,0,5.666-1.821,43.927,43.927,0,0,0,5.768-3.137q2.832-1.821,5.193-3.609t3.98-3.2a17.14,17.14,0,0,0,2.024-1.956,3.686,3.686,0,0,1,1.553-1.248,1.53,1.53,0,0,1,1.246-.068q.44.237.371,1.012a3.652,3.652,0,0,1-1.147,1.922,36.388,36.388,0,0,1-3.843,3.812,49.9,49.9,0,0,1-5.026,3.811,65.729,65.729,0,0,1-5.8,3.44,38.345,38.345,0,0,1-6.238,2.631,33.746,33.746,0,0,1-6.273,1.383,17.961,17.961,0,0,1-5.938-.236,8.485,8.485,0,0,1-5.193-3.069,8.7,8.7,0,0,1-1.619-4.924,14.653,14.653,0,0,1,1.113-5.734A26.161,26.161,0,0,1,1172.85,338.472Zm10.726-4.452a.707.707,0,0,0-.574-.439,1.413,1.413,0,0,0-.943.472,10.947,10.947,0,0,0-1.418,1.653,26.708,26.708,0,0,0-1.922,3.17,3.287,3.287,0,0,0,1.99-.371,6.537,6.537,0,0,0,1.721-1.281,4.894,4.894,0,0,0,1.078-1.686A2.013,2.013,0,0,0,1183.576,334.02Z" fill="#045e50"/>
      <path id="Path_8765" data-name="Path 8765" d="M1248.535,342.924q-1.011,1.282-2.631,3.238t-3.709,4.182q-2.091,2.226-4.554,4.52a64.735,64.735,0,0,1-5.092,4.283,36.648,36.648,0,0,1-5.4,3.407,19.326,19.326,0,0,1-5.464,1.889,12,12,0,0,1-4.891-.2,7.426,7.426,0,0,1-4.149-2.765,7.947,7.947,0,0,1-1.449-4.048,14.925,14.925,0,0,1,.336-4.452,20.576,20.576,0,0,1,1.485-4.284,19.359,19.359,0,0,1,2.125-3.541,8.187,8.187,0,0,1-2.766-.067,9.769,9.769,0,0,1-2.664-.911,8.221,8.221,0,0,1-2.194-1.619,4.536,4.536,0,0,1-1.212-2.26,5.481,5.481,0,0,1,.4-3.069,6.139,6.139,0,0,1,2.631-2.934,3.854,3.854,0,0,1,1.517-.473,3.644,3.644,0,0,1,1.416.135,2.617,2.617,0,0,1,1.08.641,1.717,1.717,0,0,1,.506,1.046,1.151,1.151,0,0,1-.236,1.045,5.02,5.02,0,0,1-.877.81c-.338.247-.641.462-.91.641s-.383.337-.338.472a2.059,2.059,0,0,0,1.012,1.247,16.45,16.45,0,0,0,2.023,1.114q1.146.54,2.293,1.011a14.163,14.163,0,0,1,1.822.877,4.673,4.673,0,0,1,1.991,2.26,4.969,4.969,0,0,1,.168,2.631,11.463,11.463,0,0,1-.979,2.834q-.707,1.451-1.482,2.9t-1.35,2.8a6.42,6.42,0,0,0-.574,2.5A2.716,2.716,0,0,0,1217,360.6a3.251,3.251,0,0,0,1.449.978,5.446,5.446,0,0,0,1.957.27,11.414,11.414,0,0,0,2.024-.237,17,17,0,0,0,4.621-1.956,39.1,39.1,0,0,0,4.756-3.339,60.472,60.472,0,0,0,4.586-4.148q2.226-2.226,4.115-4.318t3.406-3.845q1.518-1.753,2.463-2.765a3.7,3.7,0,0,1,1.619-1.113,1.762,1.762,0,0,1,1.281,0c.315.158.44.483.371.978A3.72,3.72,0,0,1,1248.535,342.924Z" fill="#045e50"/>
    </g>
    <g id="Group_1182" data-name="Group 1182">
      <path id="Path_8766" data-name="Path 8766" d="M720.291,203a29.871,29.871,0,0,0-7.926-11.063,28.929,28.929,0,0,0-11.232-6.037,31.388,31.388,0,0,0-13.086-.708,35.082,35.082,0,0,0-13.424,5.059,40.1,40.1,0,0,0-6.207,4.688,43.556,43.556,0,0,0-5.3,5.835,38.552,38.552,0,0,0-4.115,6.813,35.726,35.726,0,0,0-2.6,7.623,4.013,4.013,0,0,1-1.789,2.766,2.638,2.638,0,0,1-2.461.236,2.918,2.918,0,0,1-1.553-2.159,6.675,6.675,0,0,1,.946-4.351,54.851,54.851,0,0,1,9.105-12.48,65.862,65.862,0,0,1,12.885-10.455,53.138,53.138,0,0,1,9.512-4.655,46.552,46.552,0,0,1,9.883-2.5,38.576,38.576,0,0,1,9.781-.1,29.123,29.123,0,0,1,9.14,2.631,28.26,28.26,0,0,1,7.926,5.7,32.577,32.577,0,0,1,6.172,9.039,43.787,43.787,0,0,1,3.508,11.232,54.618,54.618,0,0,1,.674,12.176A70.323,70.323,0,0,1,728.25,235a93.907,93.907,0,0,1-4.113,12.851q6.676-1.416,12.006-2.361t8.769-1.417a1.56,1.56,0,0,1,1.383.2,1.44,1.44,0,0,1,.574.978,1.636,1.636,0,0,1-.338,1.146,1.617,1.617,0,0,1-1.281.641q-2.97.339-8.871,1.316t-13.66,2.732a105.422,105.422,0,0,1-7.184,13.491,120.148,120.148,0,0,1-9.039,12.547,106.329,106.329,0,0,1-10.49,11.029,91.626,91.626,0,0,1-11.6,9.006q-3.035,1.956-6.914,3.946a69,69,0,0,1-8.095,3.508,53.7,53.7,0,0,1-8.4,2.293,23.916,23.916,0,0,1-7.859.236,14.476,14.476,0,0,1-6.508-2.6,12.268,12.268,0,0,1-4.25-6.239,16.346,16.346,0,0,1-.035-9.242,24.278,24.278,0,0,1,4.148-7.859,35.542,35.542,0,0,1,6.713-6.509,89.089,89.089,0,0,1,7.725-5.2c.4-.269.818-.529,1.246-.775s.867-.484,1.316-.709a55.56,55.56,0,0,1-.844-14.435,106.972,106.972,0,0,1,2.125-15.144A136.969,136.969,0,0,1,668.82,223.6q2.429-7.25,4.993-13.66,1.077-2.765,2.5-3.44a2.112,2.112,0,0,1,2.429.168,4.727,4.727,0,0,1,1.383,2.868,8.751,8.751,0,0,1-.574,4.586q-.809,2.295-2.328,5.97t-3.237,8.163q-1.722,4.486-3.441,9.545t-2.967,10.118a76.584,76.584,0,0,0-1.789,9.916,34.489,34.489,0,0,0,.069,8.9q5.325-2.768,11.365-5.2t12.379-4.519q6.339-2.089,12.75-3.879t12.478-3.2l4.184-1.012a85.139,85.139,0,0,0,3.541-11.838,70.084,70.084,0,0,0,1.586-11.839,54.11,54.11,0,0,0-.676-11.468A47.334,47.334,0,0,0,720.291,203ZM672.6,277.468a2.766,2.766,0,0,1,1.347,1.349,1.816,1.816,0,0,1-.033,1.417,2.68,2.68,0,0,1-1.045,1.147,3.8,3.8,0,0,1-1.619.573,3.446,3.446,0,0,1-1.754-.269,3.166,3.166,0,0,1-1.484-1.451,31.241,31.241,0,0,1-2.192-4.452,46.722,46.722,0,0,1-1.586-4.722q-.744.471-1.484.877a14.694,14.694,0,0,0-1.416.877,56.9,56.9,0,0,0-4.756,3.44,32.027,32.027,0,0,0-4.082,3.913,23.022,23.022,0,0,0-3.068,4.485,17.42,17.42,0,0,0-1.721,5.161,16.788,16.788,0,0,0,.033,5.7,9.946,9.946,0,0,0,2.666,5.16,9.7,9.7,0,0,0,4.485,2.868,15.625,15.625,0,0,0,5.566.573,26.612,26.612,0,0,0,6.1-1.181,54.9,54.9,0,0,0,6.207-2.361,60.482,60.482,0,0,0,5.869-3.035q2.8-1.654,5.025-3.137a84.941,84.941,0,0,0,10.389-8.3,95.118,95.118,0,0,0,9.342-10.085,104.09,104.09,0,0,0,7.961-11.434,100.01,100.01,0,0,0,6.306-12.344c-.361.09-.685.168-.978.236s-.619.146-.979.236q-6.138,1.552-12.648,3.406t-12.918,4.014q-6.408,2.16-12.446,4.587T666.6,269.778a13.815,13.815,0,0,0,2.224,4.452A12.052,12.052,0,0,0,672.6,277.468Z" fill="#045e50"/>
      <path id="Path_8767" data-name="Path 8767" d="M742.08,259.862a8.645,8.645,0,0,1-.844-3,16.778,16.778,0,0,1,0-3.339,17.478,17.478,0,0,1,.674-3.339,22.553,22.553,0,0,1,1.182-3.069,18.91,18.91,0,0,1,3.338-4.79,17.868,17.868,0,0,1,4.621-3.508,16.631,16.631,0,0,1,5.531-1.753,14.8,14.8,0,0,1,6.072.472,1.544,1.544,0,0,1,.842,1.281,1.442,1.442,0,0,1-.6,1.114,2.59,2.59,0,0,1-1.52.472,2.96,2.96,0,0,1-1.82-.573,5.1,5.1,0,0,0-3.643-.574,6.315,6.315,0,0,0-2.933,1.821,12.527,12.527,0,0,0-2.26,3.441,25.435,25.435,0,0,0-1.52,4.283,35.266,35.266,0,0,0-.841,4.318,20.351,20.351,0,0,0-.2,3.507q.135,1.755,1.147,2.125t2.43-1.045a11.124,11.124,0,0,0,1.685-2.26,19.943,19.943,0,0,0,1.383-2.867q.572-1.483.945-2.8a12,12,0,0,0,.438-2.125,6.171,6.171,0,0,1-2.9-1.652,2.718,2.718,0,0,1-.742-1.923,2.476,2.476,0,0,1,.742-1.619,2.416,2.416,0,0,1,1.551-.742,2.332,2.332,0,0,1,1.754.742,5.551,5.551,0,0,1,1.35,2.834,33.372,33.372,0,0,0,4.687.371q2.532.035,5.094-.1t5.025-.473a39.567,39.567,0,0,0,4.553-.877,6.235,6.235,0,0,1,3.137-.3q.776.3.642.91a2.575,2.575,0,0,1-.912,1.282,3.285,3.285,0,0,1-1.449.81,47.754,47.754,0,0,1-4.689.91q-2.529.372-5.227.506t-5.363.068a43.3,43.3,0,0,1-5.026-.4,15.347,15.347,0,0,1-.371,3.2,25.131,25.131,0,0,1-1.012,3.44,18.763,18.763,0,0,1-1.619,3.3,12.3,12.3,0,0,1-2.259,2.733,8.559,8.559,0,0,1-2.664,1.652,8.408,8.408,0,0,1-3.172.641,6.365,6.365,0,0,1-3-.742A5.166,5.166,0,0,1,742.08,259.862Z" fill="#045e50"/>
      <path id="Path_8768" data-name="Path 8768" d="M818.846,246.641q-.138-.27-.979.843t-2.092,2.934q-1.248,1.821-2.7,4.149t-2.765,4.519q-1.316,2.193-2.43,4.048t-1.584,2.732a9.087,9.087,0,0,1-1.52,1.551,2.633,2.633,0,0,1-1.652.607,2.529,2.529,0,0,1-1.82-.64,5.162,5.162,0,0,1-1.114-1.586,8.483,8.483,0,0,1-.64-2.024,17.9,17.9,0,0,1-.27-2.023,27.766,27.766,0,0,1,.2-6.273,55.9,55.9,0,0,1,1.452-7.286,52.967,52.967,0,0,1,2.326-6.847,19.5,19.5,0,0,1,2.765-4.89,5.006,5.006,0,0,1,2.26-1.653,3.576,3.576,0,0,1,2.16-.068,2.412,2.412,0,0,1,1.449,1.147,2.353,2.353,0,0,1,.135,1.923,54.844,54.844,0,0,1-2.023,5.363q-1.416,3.339-2.867,6.981t-2.6,7.083a23.159,23.159,0,0,0-1.283,5.734v.439a1.624,1.624,0,0,0,.068.506.314.314,0,0,0,.236.236c.112.023.28-.1.506-.372q.2-.267.979-1.652t1.955-3.44q1.181-2.057,2.664-4.52t3.137-4.823a53.842,53.842,0,0,1,3.373-4.351,21.732,21.732,0,0,1,3.34-3.2,5.734,5.734,0,0,1,2.933-1.248,2.65,2.65,0,0,1,2.4,1.315,4.1,4.1,0,0,1,.607,2.732,19.985,19.985,0,0,1-.641,3.542q-.506,1.889-1.044,3.878a15.371,15.371,0,0,0-.575,3.71,5.675,5.675,0,0,0,.676,2.969,4.013,4.013,0,0,0,2.8,1.72,6.6,6.6,0,0,0,3.676-.27,22.748,22.748,0,0,0,4.318-1.99,40.93,40.93,0,0,0,4.553-3.1q2.293-1.786,4.385-3.71t3.878-3.778q1.788-1.854,3-3.339A3.082,3.082,0,0,1,851.967,243a1.655,1.655,0,0,1,1.314,0,.972.972,0,0,1,.44,1.045,3.473,3.473,0,0,1-1.08,1.855q-2.227,2.631-5.364,5.835a54.2,54.2,0,0,1-6.779,5.87,37.856,37.856,0,0,1-7.521,4.316,14.976,14.976,0,0,1-7.588,1.248,7.834,7.834,0,0,1-4.487-1.753,8.555,8.555,0,0,1-2.5-3.643,12.5,12.5,0,0,1-.674-4.756,18.044,18.044,0,0,1,.911-5.025q.133-.405.236-.81T818.846,246.641Z" fill="#045e50"/>
      <path id="Path_8769" data-name="Path 8769" d="M847.648,259.862a8.625,8.625,0,0,1-.843-3,16.632,16.632,0,0,1,0-3.339,17.336,17.336,0,0,1,.675-3.339,22.551,22.551,0,0,1,1.18-3.069,18.942,18.942,0,0,1,3.34-4.79,17.834,17.834,0,0,1,4.621-3.508,16.6,16.6,0,0,1,5.531-1.753,14.79,14.79,0,0,1,6.071.472,1.55,1.55,0,0,1,.843,1.281,1.447,1.447,0,0,1-.607,1.114,2.588,2.588,0,0,1-1.518.472,2.963,2.963,0,0,1-1.822-.573,5.1,5.1,0,0,0-3.642-.574,6.322,6.322,0,0,0-2.934,1.821,12.526,12.526,0,0,0-2.26,3.441,25.165,25.165,0,0,0-1.517,4.283,35.477,35.477,0,0,0-.844,4.318,20.315,20.315,0,0,0-.2,3.507q.132,1.755,1.146,2.125t2.428-1.045a11.2,11.2,0,0,0,1.687-2.26,19.943,19.943,0,0,0,1.383-2.867q.571-1.483.944-2.8a12.21,12.21,0,0,0,.439-2.125,6.191,6.191,0,0,1-2.9-1.652,2.712,2.712,0,0,1-.741-1.923,2.46,2.46,0,0,1,.741-1.619,2.414,2.414,0,0,1,1.552-.742,2.335,2.335,0,0,1,1.754.742,5.559,5.559,0,0,1,1.35,2.834,33.323,33.323,0,0,0,4.687.371q2.529.035,5.094-.1t5.026-.473a39.553,39.553,0,0,0,4.552-.877,6.236,6.236,0,0,1,3.137-.3c.516.2.731.506.641.91a2.581,2.581,0,0,1-.91,1.282,3.293,3.293,0,0,1-1.452.81q-2.158.54-4.687.91t-5.229.506q-2.7.135-5.363.068a43.323,43.323,0,0,1-5.025-.4,15.213,15.213,0,0,1-.371,3.2,24.716,24.716,0,0,1-1.012,3.44,18.768,18.768,0,0,1-1.619,3.3,12.335,12.335,0,0,1-2.26,2.733,8.5,8.5,0,0,1-2.664,1.652,8.386,8.386,0,0,1-3.17.641,6.359,6.359,0,0,1-3-.742A5.169,5.169,0,0,1,847.648,259.862Z" fill="#045e50"/>
      <path id="Path_8770" data-name="Path 8770" d="M854.326,217.432q2.16.337,4.149.54t3.947.337a123.31,123.31,0,0,0,13.525-.068q6.78-.4,13.592-1.146,1.62-5.465,3.44-10.524t3.71-9.444q1.887-4.383,3.846-7.993a43.334,43.334,0,0,1,3.979-6.173,8.833,8.833,0,0,1,3.271-2.765,4.955,4.955,0,0,1,3.408-.472,4,4,0,0,1,2.5,2.158,8.938,8.938,0,0,1,.606,5.059,31.953,31.953,0,0,1-1.482,6.341,76.933,76.933,0,0,1-2.834,7.184q-1.687,3.744-3.811,7.657t-4.352,7.757q4.047-.405,8.8-.877t9.748-.775q4.992-.3,9.949-.338a84.188,84.188,0,0,1,9.411.439,48.656,48.656,0,0,1,7.757,1.585,17.148,17.148,0,0,1,5.87,2.935,1.447,1.447,0,0,1,.572,1.652,2.509,2.509,0,0,1-1.18,1.416,2.648,2.648,0,0,1-1.957.271,2.685,2.685,0,0,1-1.754-1.721,6.373,6.373,0,0,0-3.541-3.271,22.049,22.049,0,0,0-6.24-1.518,60.545,60.545,0,0,0-8.938-.169q-4.956.237-10.152.776t-10.287,1.282q-5.1.742-9.342,1.214a1.5,1.5,0,0,1-.472.068q-2.16,3.439-4.182,6.61t-3.779,5.869q-1.146,2.9-2.461,6.746t-2.6,8.229q-1.283,4.386-2.4,9.107t-1.957,9.309q-.84,4.587-1.314,8.8a51.339,51.339,0,0,0-.338,7.657,22.2,22.2,0,0,0,1.754,8.836,11.967,11.967,0,0,0,5.061,5.4q1.212.741,1.248,1.619a1.56,1.56,0,0,1-.778,1.416,3.3,3.3,0,0,1-2.191.4A5.3,5.3,0,0,1,883.2,297.3a13.8,13.8,0,0,1-3.271-6.24,40.412,40.412,0,0,1-1.248-9.545,103.212,103.212,0,0,1,.472-12.986q.678-7.318,2.024-15.413t3.271-16.629q1.926-8.532,4.285-16.628-6.207.405-12.48.54t-12.816-.2q-3.777-.135-6.78-.472a33.01,33.01,0,0,1-4.959-.877,2.156,2.156,0,0,1-1.349-1.552,1.748,1.748,0,0,1,.406-1.518,1.516,1.516,0,0,1,1.551-.337Q853.314,215.679,854.326,217.432Zm41.891,1.821a4.419,4.419,0,0,0-.539.034,4.276,4.276,0,0,1-.539.034c-.182.539-.338,1.079-.473,1.618s-.27,1.08-.4,1.62Zm7.623-22.733a84.161,84.161,0,0,0-4.283,9.343q-1.992,5.094-3.61,10.557l1.957-.2q2.631-4.654,5.127-9.478t4.317-9.343a38.511,38.511,0,0,0,2.259-6.307q.44-2.057-.168-2.125t-2.091,1.889A46.894,46.894,0,0,0,903.84,196.52Z" fill="#045e50"/>
      <path id="Path_8771" data-name="Path 8771" d="M996.9,226.295c-4.293.614-4.906,1.1-6.562,6.135-2.024,6.133-6.932,21.714-10.3,32.694h-2.086c-3.189-9.569-7.3-21.408-10.49-30.486-3.557,10.55-7.176,21.04-10.365,30.486H955.07C952,254.573,948.508,243.1,945.2,232.368c-1.6-4.969-2.269-5.643-6.256-6.073v-1.717H954.09v1.717c-4.539.491-4.662,1.166-3.8,4.233,2.393,8.281,4.846,16.439,7.359,25.088,3.375-9.753,7.055-20.426,10.184-30.486h1.963c3.436,10.428,6.869,20.12,10.428,30.548,2.576-8.158,6.072-19.077,7.422-24.414.92-3.557.429-4.355-4.786-4.969v-1.717H996.9Z" fill="#045e50"/>
      <path id="Path_8772" data-name="Path 8772" d="M1024.2,223.719a19.718,19.718,0,0,1,19.873,20.242c0,13.189-8.955,21.408-20.242,21.408-11.777,0-20.365-8.955-20.365-20.487C1003.463,233.9,1011.254,223.719,1024.2,223.719Zm-1.226,2.27c-6.871,0-13.127,5.766-13.127,17.237,0,11.409,6.256,19.813,14.967,19.813,7.421,0,13-5.521,13-17.36C1037.814,232.8,1031.006,225.989,1022.971,225.989Z" fill="#045e50"/>
      <path id="Path_8773" data-name="Path 8773" d="M1097,226.295c-3.926.43-5.215,1.043-5.4,3.865-.061,1.963-.184,4.539-.184,10.244V265h-2.332l-26.254-32.081v15.335c0,5.521.186,8.281.309,10.06.121,3.128,1.654,4.049,6.072,4.416v1.718h-14.906v-1.718c3.8-.306,5.275-1.226,5.521-4.232.184-1.963.307-4.723.307-10.3V232.552a5.339,5.339,0,0,0-1.229-4.048c-1.164-1.534-2.453-1.9-5.459-2.209v-1.717h9.2l26.01,30.854V240.4c0-5.705-.123-8.342-.308-10.183-.184-2.76-1.594-3.619-6.5-3.926v-1.717H1097Z" fill="#045e50"/>
      <path id="Path_8774" data-name="Path 8774" d="M1123.557,224.578c8.65,0,14.109,1.717,17.912,5.337a17.747,17.747,0,0,1,5.215,13.127c0,7.176-2.946,13-7.668,16.562-4.662,3.5-10.612,4.845-18.157,4.845h-14.353v-1.718c5.273-.49,5.519-.919,5.519-5.949V232.307c0-5.275-.736-5.521-5.519-6.012v-1.717Zm-6.2,31.713c0,4.6,1.963,5.889,6.565,5.889,11.041,0,16.683-7.545,16.683-18.28,0-6.686-2.269-11.777-7.115-14.721-2.82-1.78-6.379-2.454-10.488-2.454-2.76,0-4.233.368-4.846.858-.553.369-.8,1.043-.8,3.436Z" fill="#045e50"/>
      <path id="Path_8775" data-name="Path 8775" d="M1189.064,254.7c-.369,1.595-2.025,7.913-2.638,9.753h-29.811v-1.718c5.7-.429,6.135-.981,6.135-6.011V232.491c0-5.459-.676-5.766-5.275-6.2v-1.717h18.769c5.766,0,8.158-.061,8.9-.123.06,1.534.306,6.134.552,9.385l-1.841.307a20.336,20.336,0,0,0-1.84-4.662c-.981-2.024-2.393-2.453-6.072-2.453h-5.829c-1.9,0-2.023.184-2.023,1.963v13.556h6.809c4.6,0,4.908-.92,5.642-5.092h1.9V250.1h-1.9c-.8-4.417-1.287-5.031-5.7-5.031h-6.748v12.207c0,4.294,1.35,4.662,4.416,4.724h5.705c3.742,0,4.356-.553,5.7-2.147a26.439,26.439,0,0,0,3.313-5.643Z" fill="#045e50"/>
      <path id="Path_8776" data-name="Path 8776" d="M1234.328,264.94c-.8,0-1.471-.062-2.269-.123-4.477-.306-6.87-1.472-9.569-5.275-2.269-3.128-4.478-6.993-6.441-10.121-1.227-1.963-2.024-2.331-5.153-2.331h-2.146v9.63c0,5.214.676,5.521,5.582,6.011v1.718h-16.377v-1.718c5.09-.551,5.52-.8,5.52-6.011V232.246c0-5.214-.674-5.4-5.52-5.951v-1.717H1213.6c4.478,0,7.484.552,9.814,2.086a9.162,9.162,0,0,1,4.172,8.1c0,5.275-3.375,8.587-7.914,10.55,1.1,1.9,3.742,6.011,5.582,8.772a56.531,56.531,0,0,0,4.846,6.318,8.839,8.839,0,0,0,4.478,2.822ZM1211.695,245c3.19,0,5.213-.49,6.746-1.778,2.393-1.779,3.375-4.233,3.375-7.545,0-6.564-4.355-8.956-9.08-8.956-1.777,0-2.82.245-3.25.613-.552.43-.736,1.043-.736,2.638V245Z" fill="#045e50"/>
      <path id="Path_8777" data-name="Path 8777" d="M1248.188,265.308a3.657,3.657,0,0,1-3.741-3.926,3.724,3.724,0,0,1,3.741-3.925,3.825,3.825,0,0,1,3.865,3.925A3.754,3.754,0,0,1,1248.188,265.308Z" fill="#045e50"/>
    </g>
  </g>
</svg>
