<svg xmlns="http://www.w3.org/2000/svg" xmlns:xlink="http://www.w3.org/1999/xlink" width="290.272" height="294.717" viewBox="0 0 290.272 294.717">
  <defs>
    <linearGradient id="linear-gradient" x1="0.247" y1="0.192" x2="1.163" y2="0.631" gradientUnits="objectBoundingBox">
      <stop offset="0" stop-color="#d4b888"/>
      <stop offset="1" stop-color="#b28453"/>
    </linearGradient>
    <filter id="Subtraction_16" x="0" y="0" width="290.272" height="294.717" filterUnits="userSpaceOnUse">
      <feOffset dx="-10" dy="20" input="SourceAlpha"/>
      <feGaussianBlur stdDeviation="12.5" result="blur"/>
      <feFlood flood-color="#010101" flood-opacity="0.149"/>
      <feComposite operator="in" in2="blur"/>
      <feComposite in="SourceGraphic"/>
    </filter>
  </defs>
  <g transform="matrix(1, 0, 0, 1, 0, 0)" filter="url(#Subtraction_16)">
    <path id="Subtraction_16-2" data-name="Subtraction 16" d="M7013.484,731.32a9.283,9.283,0,0,1-2.729-.41l-98.326-30.22a9.34,9.34,0,0,1-6.336-6.808l-23.2-100.567a9.347,9.347,0,0,1,2.711-8.9l75.14-70.3a9.3,9.3,0,0,1,9.087-2.1l98.326,30.22a9.339,9.339,0,0,1,6.336,6.808l23.2,100.567a9.344,9.344,0,0,1-2.713,8.9l-75.138,70.3A9.276,9.276,0,0,1,7013.484,731.32Z" transform="translate(-6835.16 -494.1)" fill="url(#linear-gradient)"/>
  </g>
</svg>
