<svg xmlns="http://www.w3.org/2000/svg" xmlns:xlink="http://www.w3.org/1999/xlink" width="54" height="54" viewBox="0 0 54 54">
  <defs>
    <linearGradient id="linear-gradient" x1="0.5" x2="0.5" y2="1" gradientUnits="objectBoundingBox">
      <stop offset="0" stop-color="#c9a877"/>
      <stop offset="1" stop-color="#b38554"/>
    </linearGradient>
  </defs>
  <g id="ic-call" transform="translate(-3896 -4994)">
    <circle id="Ellipse_23" data-name="Ellipse 23" cx="27" cy="27" r="27" transform="translate(3896 4994)" fill="url(#linear-gradient)"/>
    <path id="phone" d="M29,22.9a6.8,6.8,0,0,1-.206,1.452,8.174,8.174,0,0,1-.433,1.411,5.524,5.524,0,0,1-2.513,2.183A7.985,7.985,0,0,1,22.017,29a8.221,8.221,0,0,1-1.092-.072,8.351,8.351,0,0,1-1.184-.258q-.648-.186-.968-.3t-1.143-.422q-.823-.309-1.009-.371a18.647,18.647,0,0,1-3.6-1.709A31.052,31.052,0,0,1,7.579,21.42,31.052,31.052,0,0,1,3.13,15.983a18.677,18.677,0,0,1-1.709-3.6q-.062-.185-.371-1.009T.628,10.227q-.114-.319-.3-.968A8.536,8.536,0,0,1,.072,8.074,8.032,8.032,0,0,1,0,6.983,7.988,7.988,0,0,1,1.05,3.151,5.524,5.524,0,0,1,3.233.639,8.2,8.2,0,0,1,4.644.206,6.789,6.789,0,0,1,6.1,0a1.15,1.15,0,0,1,.433.062Q6.9.185,7.621,1.627q.226.391.618,1.112t.721,1.308q.329.587.639,1.1.062.082.36.515A5.864,5.864,0,0,1,10.4,6.4a1.33,1.33,0,0,1,.144.587,1.709,1.709,0,0,1-.587,1.029A10.061,10.061,0,0,1,8.681,9.145,12.429,12.429,0,0,0,7.4,10.237a1.569,1.569,0,0,0-.587.947,1.389,1.389,0,0,0,.1.463q.1.278.175.422t.288.495q.217.35.237.392A21.616,21.616,0,0,0,11.2,17.8a21.616,21.616,0,0,0,4.841,3.584q.041.021.391.237t.495.288a4.325,4.325,0,0,0,.422.175,1.416,1.416,0,0,0,.463.1,1.569,1.569,0,0,0,.947-.587,12.429,12.429,0,0,0,1.092-1.277,10.061,10.061,0,0,1,1.133-1.277,1.709,1.709,0,0,1,1.029-.587,1.345,1.345,0,0,1,.587.144,5.737,5.737,0,0,1,.731.443q.433.3.515.36.515.309,1.1.639t1.308.721q.721.392,1.112.618,1.442.721,1.565,1.092A1.15,1.15,0,0,1,29,22.9Z" transform="translate(3908 5006)" fill="#fff"/>
  </g>
</svg>
