<svg xmlns="http://www.w3.org/2000/svg" xmlns:xlink="http://www.w3.org/1999/xlink" width="54" height="54" viewBox="0 0 54 54">
  <defs>
    <linearGradient id="linear-gradient" x1="0.5" x2="0.5" y2="1" gradientUnits="objectBoundingBox">
      <stop offset="0" stop-color="#c9a877"/>
      <stop offset="1" stop-color="#b38554"/>
    </linearGradient>
  </defs>
  <g id="ic-map" transform="translate(-3896 -4994)">
    <circle id="Ellipse_23" data-name="Ellipse 23" cx="27" cy="27" r="27" transform="translate(3896 4994)" fill="url(#linear-gradient)"/>
    <path id="pin" d="M10.962.25a10.689,10.689,0,0,1,7.8,3.2A10.512,10.512,0,0,1,22,11.212a15,15,0,0,1-1.141,5.26A30.535,30.535,0,0,1,18.1,21.989q-1.618,2.538-3.237,4.782t-2.722,3.568L10.962,31.59q-.441-.441-1.177-1.324T7.173,26.845Q5.3,24.307,3.826,21.916a33.619,33.619,0,0,1-2.649-5.408A14.868,14.868,0,0,1,0,11.212,10.569,10.569,0,0,1,3.2,3.45,10.569,10.569,0,0,1,10.962.25Zm0,14.86a3.882,3.882,0,0,0,2.8-1.141,3.822,3.822,0,0,0,0-5.517,3.875,3.875,0,0,0-2.8-1.14,3.894,3.894,0,0,0-3.9,3.9,3.893,3.893,0,0,0,3.9,3.9Z" transform="translate(3911.62 5004.634)" fill="#fff"/>
  </g>
</svg>
