<?xml version="1.0" encoding="UTF-8"?> <svg xmlns="http://www.w3.org/2000/svg" xmlns:xlink="http://www.w3.org/1999/xlink" width="161.356" height="186" viewBox="0 0 161.356 186"><defs><linearGradient id="linear-gradient" x1="0.267" y1="0.984" x2="0.742" y2="0.007" gradientUnits="objectBoundingBox"><stop offset="0" stop-color="#025750"></stop><stop offset="1" stop-color="#03a687"></stop></linearGradient></defs><g id="icon2" transform="translate(-43.482 -2)"><path id="Polygon_9" data-name="Polygon 9" d="M134.321,0A9,9,0,0,1,142.1,4.477l41.269,71a9,9,0,0,1,0,9.045l-41.269,71A9,9,0,0,1,134.321,160H51.679a9,9,0,0,1-7.781-4.477l-41.269-71a9,9,0,0,1,0-9.045l41.269-71A9,9,0,0,1,51.679,0Z" transform="translate(204.838 2) rotate(90)" fill="url(#linear-gradient)"></path><path id="Path_8469" data-name="Path 8469" d="M1021.37,727.4c-.128.082-.3.508-.381.381a.275.275,0,0,1,.081-.381c.82-.535-2.761,1.7,1.159-.969,10.467-7.136,27.666-18.86,28.878-19.207a.276.276,0,0,1,.255.475c-3.554,3.4-3.192,5.541-1.479,7.336a20.882,20.882,0,0,0,3.12,2.469c.158-1.637.04-3.13-1.691-4.226-1.09-.69-1.978-1.259-1.812-2.281.15-.918,1.277-2.14,4.171-4.1a12.9,12.9,0,0,1,8.12-1.876,30.316,30.316,0,0,1,10.688,2.961c3.007,1.414,4.508,2.538,4.98,3.379a1.389,1.389,0,0,1,.2.623,34.847,34.847,0,0,0,7.951-.518c.427-.07.837-.139,1.238-.2,3.012-.43,5.152-.192,6.2.344a2.225,2.225,0,0,1,.355.223q.909-.183,1.775-.394a10.392,10.392,0,0,0,5.333-2.933,10.737,10.737,0,0,1-1.554-1.617,8.526,8.526,0,0,1-1.8-4.657,10.836,10.836,0,0,1,.921-4.993,17.116,17.116,0,0,1,2.314-3.856,13.632,13.632,0,0,0-3.073-3.619l-15.147,11.05a.275.275,0,0,1-.423-.307h0l7.273-22.238-18.955-13.716a.275.275,0,0,1,.181-.5l23.378.045,7.187-22.266a.275.275,0,0,1,.524,0l7.187,22.266,23.4-.045a.275.275,0,0,1,.161.5h0l-18.955,13.716,7.273,22.238a.275.275,0,0,1-.44.3l-15.131-11.038a23.668,23.668,0,0,0-3.773,3.668,18.466,18.466,0,0,1,1.908,4.769,14.662,14.662,0,0,1,.36,5.284,9.792,9.792,0,0,1-1.875,4.757q-.075.1-.153.195a16.173,16.173,0,0,0,3.591,2.052,7.54,7.54,0,0,1,3.592,1.027,4.764,4.764,0,0,1,.5.366c2.647-2.335,14.363-2.332,18.263-2.331.468,0,.821,0,1.031,0,.857-.016,1.545,0,2.067.031,1.891-.109,3.738-.15,5.448-.091l.233.008a30.915,30.915,0,0,1,3.6-.4c3.9-.209,7.885.293,9.864,1.755a4.063,4.063,0,0,1,1.2,1.3,2,2,0,0,1,.216,1.442,2.279,2.279,0,0,1-.8,1.2,4.5,4.5,0,0,1-1.753.837,11.981,11.981,0,0,1-2.754.263c-.32.007-.653.014-1.017.029a.286.286,0,0,1-.131-.021.275.275,0,0,1-.145-.361,4.187,4.187,0,0,0,.382-1.618c0-1.306-.917-2.221-2.449-2.835a19.64,19.64,0,0,0-6.194-1.039c-2.617.456-4.826,1.237-5.794,2.247a2.455,2.455,0,0,0-.248.306l.01.007a1.3,1.3,0,0,1,.581,1.636,1.917,1.917,0,0,1-.724,1.081.493.493,0,0,1-.655-.159,1.321,1.321,0,0,1-.233-.641,3.338,3.338,0,0,1,.274-1.706,8.37,8.37,0,0,0-2.794-.51,18.668,18.668,0,0,0-4.6.406c-1.928.419-3.636,1.141-4.377,2.146q.241.254.479.553a2.307,2.307,0,0,1,.58,2.079.985.985,0,0,1-.516.62.763.763,0,0,1-.792-.11,2.5,2.5,0,0,1-.69-1.935,2.25,2.25,0,0,1,.246-1.119,3.3,3.3,0,0,0-2.8-1.037,2.3,2.3,0,0,0-1.314.739,2.325,2.325,0,0,0-.579,1.375,3.1,3.1,0,0,0,1.812,2.824c2.486,1.455,7.378.191,11.4-.849a29.562,29.562,0,0,1,4.989-1.035,47.384,47.384,0,0,0,5.158-.913c2.258-.479,4.69-1.038,6.281-1.406a3.433,3.433,0,0,1,1.963-.03.672.672,0,0,1,.378.356.574.574,0,0,1-.054.518,2.375,2.375,0,0,1-1.217.829,53.985,53.985,0,0,1-8.158,1.837c-5.487.991-12.021,2.172-15.944,4.421a32.884,32.884,0,0,1-4.791,1.391c-4.779,1.215-12.018,3.055-16.657,5.486q-.751.393-1.466.733c.606-.161,1.228-.393,2.024-.689a70.869,70.869,0,0,1,8.625-2.649c.227-.056,2.181-.68,4.929-1.567,3.536-1.142,8.566-2.777,12.878-4.182a58.1,58.1,0,0,1,7.418-2.094c.67-.095.963.04.934.357-.017.192-.279.43-.745.7a48.674,48.674,0,0,1-6.545,2.723c-3.691,1.3-7.615,2.4-11.471,3.474-5.528,1.542-10.916,3.046-15.273,5.072-6.262,2.911-12.527,2.2-19.467,1.409-11.789-1.341-25.548-2.906-44.468,12.981l0,0h0l-3.463,2.8a.276.276,0,0,1-.349-.427l3.463-2.8h0c19.1-16.036,32.983-14.457,44.88-13.1,6.86.781,13.052,1.486,19.175-1.361,4.394-2.043,9.805-3.553,15.358-5.1,3.841-1.072,7.75-2.163,11.434-3.463a48.4,48.4,0,0,0,6.457-2.681l.007-.005a63.035,63.035,0,0,0-7.173,2.049c-4.185,1.363-9.162,2.981-12.88,4.181-2.762.892-4.729,1.52-4.965,1.579A70.321,70.321,0,0,0,1098,730.02a11.057,11.057,0,0,1-4.113.993,19.415,19.415,0,0,1-2.228.72,14.9,14.9,0,0,1-5.4.388,3.644,3.644,0,0,1-2.54-1.039.934.934,0,0,1-.2-.668.9.9,0,0,1,.341-.6,2.881,2.881,0,0,1,2.262-.332,49.955,49.955,0,0,0,7.675.972,32.225,32.225,0,0,0,3.2-1.484c4.7-2.464,11.974-4.313,16.775-5.534a34.464,34.464,0,0,0,4.653-1.335c4-2.293,10.588-3.484,16.121-4.483a53.753,53.753,0,0,0,8.057-1.809,1.927,1.927,0,0,0,.939-.589.143.143,0,0,0,.019-.04q-.008-.023-.087-.057a2.977,2.977,0,0,0-1.62.063c-1.6.369-4.036.929-6.289,1.407a47.38,47.38,0,0,1-5.247.924,29.49,29.49,0,0,0-4.878,1.018c-4.121,1.066-9.133,2.361-11.816.791a3.619,3.619,0,0,1-2.084-3.337,2.877,2.877,0,0,1,.718-1.7,2.842,2.842,0,0,1,1.628-.916,3.793,3.793,0,0,1,3.2,1.109,7.294,7.294,0,0,1,3.731-2.075c-.867.108-1.734.213-2.611.319l-2.456.3a28.318,28.318,0,0,1-4.149.279,1.148,1.148,0,0,1-.634-.163c-.256-.229-.192-.45.261-.652a18.289,18.289,0,0,1,3.025-.769c2.628-.53,6.272-1.148,10.135-1.6-5.04.058-13.165.379-15.028,2.123a5.555,5.555,0,0,1,1.273,2.235A3.726,3.726,0,0,1,1110.8,716c-.165,1.559-1.359,2.937-3.244,4.148a30.814,30.814,0,0,1-7.188,3.11,122.711,122.711,0,0,1-19.121,3.921c-3.835,1.187-5.18,1.228-6.18.735-2.532.258-4.181.367-4.366.347a9.781,9.781,0,0,1-5.784-2.239,1.564,1.564,0,0,1-.535-1.176c.041-.395.323-.7.869-.86.956-.277,2.874-.087,5.921,1.013a10.446,10.446,0,0,1,3.21,1.787,5.844,5.844,0,0,0,.822.569c1.658-.171,3.687-.406,5.925-.709,2.369-.738,5.74-1.931,10.67-3.742l.02-.006h0l10.119-2.906.028-.007c1.175-.273,2.157-.495,2.92-.667q.42-.094.742-.163a16.977,16.977,0,0,1-2.619-.4,3,3,0,0,1-2.431-2.47,3.557,3.557,0,0,1,.24-1.9,4.279,4.279,0,0,1,1.243-1.678c1.342-1.112,3.533-1.625,6.405-.534-.09-.068-.183-.132-.279-.194a7.069,7.069,0,0,0-3.378-.944h0a.294.294,0,0,1-.09-.021,16.715,16.715,0,0,1-3.779-2.16,10.918,10.918,0,0,1-5.631,3.12q-.739.18-1.507.339a.894.894,0,0,1,.043.119h0a1.079,1.079,0,0,1-.3,1.041c-.578.652-1.995,1.32-4.358,1.789a13.227,13.227,0,0,1-4.91-.331c-1.907-.4-4.026-1.019-6.115-1.661a.275.275,0,0,1,.1-.538h0a62.149,62.149,0,0,0,8.791-.038,53.871,53.871,0,0,0,5.516-.7,12.1,12.1,0,0,0-5.637-.181c-.414.059-.813.125-1.227.193a35.407,35.407,0,0,1-8.2.52,1.325,1.325,0,0,1-.312.32,4,4,0,0,1-1.934.582,16.6,16.6,0,0,1-9.417-2.2.275.275,0,0,1,.213-.5,105.463,105.463,0,0,0,11.039,1.222.78.78,0,0,0-.108-.331c-.422-.75-1.842-1.791-4.733-3.15a29.764,29.764,0,0,0-10.487-2.909,12.372,12.372,0,0,0-7.78,1.78c-2.749,1.863-3.81,2.967-3.936,3.735-.108.666.642,1.145,1.563,1.728,2.117,1.339,2.133,3.12,1.913,5.049a19.29,19.29,0,0,1,3.645,3.039,4.066,4.066,0,0,1,1.038,3.712,2.112,2.112,0,0,1-.608.988,1.624,1.624,0,0,1-1.049.41c-.817.021-1.833-.533-2.854-1.971-1.28-1.8-1.035-3.73-.8-5.555l.045-.358-.1-.072a22.172,22.172,0,0,1-3.346-2.641c-1.693-1.773-2.242-3.824.249-6.793-4.62,2.877-18.328,12.221-27.194,18.265-3.909,2.665-.32.421-1.169.976Zm35.376-6.142a17.844,17.844,0,0,0-3.3-2.776l-.009.072c-.219,1.722-.451,3.538.705,5.167.9,1.268,1.744,1.757,2.393,1.74a1.082,1.082,0,0,0,.7-.274,1.556,1.556,0,0,0,.444-.731,3.526,3.526,0,0,0-.928-3.2Zm18.454-8.375a3.986,3.986,0,0,0,1.527-.39c-2.4-.125-5.4-.423-9.28-.989a16.925,16.925,0,0,0,7.753,1.379Zm18.113-.294a.5.5,0,0,0-.084-.159,53.846,53.846,0,0,1-6.146.817,62.1,62.1,0,0,1-6.613.146c1.35.392,2.677.744,3.91,1a12.727,12.727,0,0,0,4.692.329c2.236-.444,3.547-1.042,4.053-1.613a.569.569,0,0,0,.188-.521h0Zm7.553-4.5c.049-.06.1-.121.143-.182a9.239,9.239,0,0,0,1.768-4.492,14.124,14.124,0,0,0-.35-5.086,17.911,17.911,0,0,0-1.74-4.433,16.351,16.351,0,0,0-2.106,3.555,10.3,10.3,0,0,0-.877,4.741,7.971,7.971,0,0,0,1.685,4.36,10.255,10.255,0,0,0,1.477,1.537Zm-3.376-18.889a13.874,13.874,0,0,1,3.265,3.729,24.5,24.5,0,0,1,3.9-3.728h0a.276.276,0,0,1,.33,0l14.627,10.67-7.068-21.609a.278.278,0,0,1,.1-.319l18.427-13.334-22.732.044a.277.277,0,0,1-.275-.191l-6.987-21.645-6.987,21.645h0a.277.277,0,0,1-.262.191l-22.746-.044,18.427,13.334h0a.277.277,0,0,1,.1.308l-7.071,21.62,14.611-10.659a.276.276,0,0,1,.345-.008Zm12.616,25.435a5.068,5.068,0,0,0-1.073-1.941l0,.01a.275.275,0,0,1-.361.145c-2.854-1.214-4.993-.769-6.261.282a3.745,3.745,0,0,0-1.084,1.46,3.022,3.022,0,0,0-.207,1.6,2.473,2.473,0,0,0,2.017,2.022,18.884,18.884,0,0,0,3.306.436c.748.045,1.184.072.92.512-.1.174-.768.324-2.357.683-.73.165-1.67.377-2.918.667h0l-10.112,2.905c-3.165,1.162-5.7,2.073-7.749,2.775a112.26,112.26,0,0,0,15.976-3.469,30.308,30.308,0,0,0,7.055-3.047c1.746-1.122,2.848-2.368,2.994-3.741a3.182,3.182,0,0,0-.142-1.3Zm-39.354,13.072c.164.017,1.494-.069,3.576-.272-.093-.07-.188-.144-.287-.22a9.969,9.969,0,0,0-3.059-1.706c-2.926-1.056-4.722-1.251-5.583-1-.3.087-.458.225-.475.388a1.073,1.073,0,0,0,.387.741,9.242,9.242,0,0,0,5.441,2.071Zm36.047-8.8a.273.273,0,0,0,.088-.027c.1-.163.029-.09-.088.027Zm24.136-8.715q-.233-.041-.589-.066a123.5,123.5,0,0,0-15.986,2.126c-.995.2-1.72.368-2.218.505a34.953,34.953,0,0,0,3.54-.285c.786-.1,1.626-.2,2.458-.3,3.345-.4,6.534-.791,10.107-1.379a16.529,16.529,0,0,0,2.688-.6Zm.811-.134a.367.367,0,0,1,.012.075h0c.008.188-.129.35-.409.482a13.825,13.825,0,0,1-3.014.722c-.887.146-1.748.28-2.592.4.249,0,.494,0,.734.015a8.768,8.768,0,0,1,3.035.576,2.841,2.841,0,0,1,.336-.422,8.8,8.8,0,0,1,3.851-1.9q-.96.008-1.953.048Zm-.538.1c0-.028-.005-.016-.012.006.009.011.013.015.012-.005h0Zm7.512-.452a15.224,15.224,0,0,1,3.716.868c1.749.7,2.8,1.777,2.794,3.346a4.342,4.342,0,0,1-.27,1.436l.621-.015a11.55,11.55,0,0,0,2.629-.247,3.923,3.923,0,0,0,1.537-.728,1.73,1.73,0,0,0,.617-.906,1.46,1.46,0,0,0-.166-1.053,3.54,3.54,0,0,0-1.042-1.116c-1.87-1.381-5.717-1.851-9.509-1.648q-.465.026-.927.063Zm-8.99,3.378a2.752,2.752,0,0,0-.21,1.368.815.815,0,0,0,.117.367,1.688,1.688,0,0,0,.435-.769.785.785,0,0,0-.342-.966Zm-12.532,2.281a1.727,1.727,0,0,0-.111.679c.034.874.24,1.341.473,1.517a.231.231,0,0,0,.238.045.444.444,0,0,0,.215-.283,1.786,1.786,0,0,0-.488-1.57q-.164-.207-.327-.388ZM1091.524,731.2q.432-.111.868-.246c-1.435-.121-3.384-.422-6.362-.924a2.38,2.38,0,0,0-1.82.212.371.371,0,0,0-.145.233.405.405,0,0,0,.1.28,3.162,3.162,0,0,0,2.156.819,14.375,14.375,0,0,0,5.206-.374Zm40.522-11.878c.005-.054-.015-.024-.053.03Z" transform="translate(-976.749 -599.946)" fill="#fff" stroke="#fff" stroke-miterlimit="22.926" stroke-width="0.25"></path></g></svg> 