<?xml version="1.0" encoding="UTF-8"?> <svg xmlns="http://www.w3.org/2000/svg" xmlns:xlink="http://www.w3.org/1999/xlink" width="160.162" height="186" viewBox="0 0 160.162 186"><defs><linearGradient id="linear-gradient" x1="0.271" y1="0.984" x2="0.728" y2="0.026" gradientUnits="objectBoundingBox"><stop offset="0" stop-color="#025750"></stop><stop offset="1" stop-color="#03a687"></stop></linearGradient></defs><g id="icon" transform="translate(-44.838 -0.382)"><path id="Polygon_9" data-name="Polygon 9" d="M134.321,0A9,9,0,0,1,142.1,4.477l41.269,71a9,9,0,0,1,0,9.045l-41.269,71A9,9,0,0,1,134.321,160H51.679a9,9,0,0,1-7.781-4.477l-41.269-71a9,9,0,0,1,0-9.045l41.269-71A9,9,0,0,1,51.679,0Z" transform="translate(204.838 0.382) rotate(90)" fill="url(#linear-gradient)"></path><path id="Subtraction_8" data-name="Subtraction 8" d="M5674-213.31v-1.173a45.751,45.751,0,0,1,4.92-2.7,35.632,35.632,0,0,1,14.964-3.591h.154a20.621,20.621,0,0,0,9.537-2.032c-.683-.058-1.325-.121-1.945-.182h-.009l-.133-.013-.108-.012c-1.272-.124-2.37-.231-3.245-.233-.313,0-.555,0-.717-.015s-.673-.024-.687-.51.444-.528.847-.571c.242-.026.6-.056,1.083-.092.823-.062,1.917-.133,3.248-.211,1.582-.094,3.176-.18,4.032-.227l.2-.011h.021c.287-.015.462-.025.468-.027h.023a.493.493,0,0,1,.443.274.491.491,0,0,1-.062.535,5.038,5.038,0,0,1-.473.478c.361.009.7.015,1.049.015,4.934,0,8.812-1.069,11.855-3.269a22.512,22.512,0,0,0,2.466-2.065,14.123,14.123,0,0,0-4.43-.7,13.248,13.248,0,0,0-4.686.825,13.286,13.286,0,0,1-4.641.712,29.688,29.688,0,0,1-14.542-4.058,9.076,9.076,0,0,1-.589,4.653c-.811,2.032-3.037,4-6.8,6.006A109.99,109.99,0,0,1,5674-216.3v-1.056c8.977-3.406,16.537-6.548,18.128-10.528a8.1,8.1,0,0,0,.323-5.172,5.411,5.411,0,0,1-1.182-1.379c-.6-1.076-.7-1.615-.353-1.924a.555.555,0,0,1,.378-.144.752.752,0,0,1,.43.15,5.669,5.669,0,0,1,1.587,2.734,22.149,22.149,0,0,0,7.471,3.426,28.127,28.127,0,0,0,7.361,1.1,12.424,12.424,0,0,0,4.324-.654,14.138,14.138,0,0,1,5.013-.883,15,15,0,0,1,5.212.912,37.581,37.581,0,0,0,4.315-5.776l.007-.011,0-.007,0,0c1.623-2.519,2.9-4.509,4.87-4.509a40.139,40.139,0,0,1,4.089.411l.042.005a69.573,69.573,0,0,0,8.26.707c3.265,0,5.1-.571,5.6-1.744,1.044-2.458-.228-4.677-3.889-6.784a26.811,26.811,0,0,0-2.576-1.284c-3.159-1.383-8.805-2.084-16.781-2.084-3.316,0-7.1-1.731-7.1-3.25,0-.847.909-1.277,2.7-1.277,3.1,0,10.547,2.213,17.118,4.165l.01,0,.039.012.007,0a84.82,84.82,0,0,0,9.006,2.42,9.92,9.92,0,0,0-1.5-1.836,2.277,2.277,0,0,1-.679.148.508.508,0,0,1-.457-.231.545.545,0,0,1,.1-.7,1.914,1.914,0,0,0,.126-.151l-.206-.2c-1.589-1.551-3.667-3.4-5.186-4.754l-.012-.01-.049-.044c-1.119-.995-2.093-1.864-2.684-2.43-1.024-.987-5.354-2.285-11.88-3.563a105.523,105.523,0,0,0-12-1.79c-.9,0-4.481,3.173-7.644,5.972l-.04.035,0,0-.02.018c-5.287,4.68-11.866,10.5-16.329,11.9A88.633,88.633,0,0,0,5674-239.475V-240.6a88.687,88.687,0,0,1,15.655-6.7c4.261-1.326,10.76-7.08,15.982-11.7l.006-.006c4.643-4.112,7.123-6.258,8.339-6.261,2.694,0,21.814,2.975,24.572,5.629.545.526,1.443,1.326,2.483,2.252l0,0,.142.127,0,0,.019.016c2.437,2.17,4.059,3.658,5.26,4.826a7.531,7.531,0,0,0-.054-4.562,3.566,3.566,0,0,1,.978-3.631,4.948,4.948,0,0,1,3.49-1.338,6.306,6.306,0,0,1,1.987.329,3.458,3.458,0,0,1,2.449,3.257,9.782,9.782,0,0,1-.4,3.167c.542-.166,1.371-.473,2.174-.773a16.448,16.448,0,0,1,3.822-1.178c.9,0,1.215,1.33,2.054,6.569v.006c.446,2.777,1.057,6.58,1.681,7.18a.409.409,0,0,0,.13.095c.175-.044.569-.714.8-1.115l.013-.023c.551-.942,1.306-2.232,2.543-2.584.876-1.375,1.288-1.936,1.841-1.936a3.623,3.623,0,0,0,.574-.105l.062-.015.012,0a8.225,8.225,0,0,1,1.863-.266,3.376,3.376,0,0,1,2.309.805c-.168-.267-.306-.493-.448-.733a2.747,2.747,0,0,0-2.535-1,16.131,16.131,0,0,0-5.147,1.111.489.489,0,0,1-.183.036.486.486,0,0,1-.232-.058.5.5,0,0,1-.25-.331.056.056,0,0,0,0-.012v-.009c-.06-.283-.37-1.775-.578-3.388-.429-3.309-.075-4.16.282-4.531.552-.579,2.466-1.295,5.553-2.406l.025-.009.031-.011a27.418,27.418,0,0,0,4.07-1.646,1.12,1.12,0,0,0,.117-.137l.006-.009a4.135,4.135,0,0,0-.526-.475l-.022-.018-.007-.006-.013-.01-.028-.024-.013-.011c-.3-.25-.683-.56-1.125-.99a1.806,1.806,0,0,1,.1-2.513,6.073,6.073,0,0,1,4.5-2.222,3.77,3.77,0,0,1,1.907.488c2.631,1.51,1.814,4.552,1.5,5.448.433.019,4.706.2,5.556.2h.006a.651.651,0,0,1,.5.239c.458.547.283,2.061-.475,6.335-.1.588-.193,1.093-.261,1.5a5.058,5.058,0,0,1,1.085-.854c2.732-1.58,9.813-2.808,11.071-2.808,1.187,0,3.122.784,9.5,4.794a32.971,32.971,0,0,1,5.829,4.869l.009.009c2.256,2.225,4.387,4.326,8.106,5.672,2.543.922,6.657,2.269,11.286,3.695v1.032c-4.786-1.47-9.021-2.855-11.623-3.8-3.923-1.421-6.128-3.6-8.462-5.9l-.016-.016a32.2,32.2,0,0,0-5.655-4.728c-5.313-3.339-7.829-4.64-8.972-4.64-1.167,0-8.032,1.2-10.578,2.671a5.565,5.565,0,0,0-1.669,1.657,4.952,4.952,0,0,1,1.85-.32,4.569,4.569,0,0,1,4.006,2.628,2.387,2.387,0,0,1-.432,2.711,3.485,3.485,0,0,1-1.541.875h.552l.9,0c2.056,0,4.3-.051,4.889-.659a2.107,2.107,0,0,0,.264-.323c-2.419-.678-2.816-.87-2.834-1.37a.76.76,0,0,1,.629-.748,2.16,2.16,0,0,1,.584-.07,3.138,3.138,0,0,1,2.551,1.12,1.368,1.368,0,0,1,.148.343c.078.023.155.044.246.068l.044.012.46.128c7.625,2.085,14.476,4.2,14.553,7.173a9.428,9.428,0,0,1-3.386,6.836,49.1,49.1,0,0,0,6.724.7h.01a3.729,3.729,0,0,0,3.1-1.194,3.544,3.544,0,0,1,.2-.721,2.6,2.6,0,0,0,.213-1.028c-.012-.5.008-.924.371-1.081a.509.509,0,0,1,.2-.043.518.518,0,0,1,.366.151,2.8,2.8,0,0,1-.055,2.43,3.911,3.911,0,0,1-.319.611,2.288,2.288,0,0,0,.692,1.173c1.114,1.253,3.614,3.224,8.106,6.391,1.164.822,2.467,1.707,3.873,2.631v1.185c-1.611-1.053-3.1-2.065-4.441-3.007-5.851-4.127-8.288-6.166-8.99-7.524a5.1,5.1,0,0,1-3.325,1.013h-.012a57.014,57.014,0,0,1-7.894-.875,5.452,5.452,0,0,1-2.671.743,4.656,4.656,0,0,1-2.3-.608c-.7-.4-1.321-.8-1.131-1.345.1-.286.3-.463,1.014-.463a36.476,36.476,0,0,1,4.5.58l.117.019.014,0,.1.017.151.024a8.425,8.425,0,0,0,3.769-6.594c-.018-.7-.866-1.866-4.806-3.429a91.283,91.283,0,0,0-9.017-2.816l-.26-.072-.337-.093a2.694,2.694,0,0,1-.531.74c-.859.887-2.978.96-5.453.96l-1.028,0h-.067l-1.08,0c-2.787,0-5.865.094-7.119,1.21a25.957,25.957,0,0,0,1.827,2.567l.044.057.015.019.03.038c.424.547.9,1.166,1.323,1.756a19.373,19.373,0,0,0,2.422.279,2.736,2.736,0,0,1,1.848-1.109c.892,0,3.208.176,5.034.347,1.076.1,1.986.2,2.631.288h.012c1.063.143,1.548.208,1.548.721,0,.554-.567.581-1.566.581h-.258c-.8,0-1.82.046-2.8.09l-.105,0-.071,0-.061,0c-1.348.058-2.741.119-4.141.119-.591,0-1.124-.011-1.627-.033a12.259,12.259,0,0,0-1.048,1.577c-.087.156-.178.322-.269.492a5.234,5.234,0,0,1-1.4,3.644,4.808,4.808,0,0,0,.039,3.2.431.431,0,0,0,.417.228.807.807,0,0,0,.1-.006c.809-.083,2.081-.97,3.491-2.434a14.124,14.124,0,0,1,.309-1.639c.5-2,1.551-4.3,2.685-4.623a1.089,1.089,0,0,1,.288-.042.979.979,0,0,1,.686.288c.379.369.43.966.151,1.772a15.615,15.615,0,0,1-3.178,4.691c-.182,1.884.176,3.366,1.007,4.171a1.42,1.42,0,0,0,.82.466.421.421,0,0,0,.107-.013c.733-.189,1.347-2.189,1.753-3.513l.006-.019v0c.53-1.731.913-2.982,1.807-2.982a4.936,4.936,0,0,1,2.707,1.189l.01.008.008,0a24.2,24.2,0,0,0,3.082,1.83,4.534,4.534,0,0,0,1.955.329,35.393,35.393,0,0,0,5.342-.652l.02,0,.025,0a34.1,34.1,0,0,1,5.27-.639,3.9,3.9,0,0,1,2.772.776c.894.868,7.427,5.157,15.727,10.156v1.144c-8.525-5.125-15.493-9.7-16.415-10.594a2.984,2.984,0,0,0-2.038-.5,34.091,34.091,0,0,0-5.169.632l-.017,0a35.672,35.672,0,0,1-5.5.666,5.477,5.477,0,0,1-2.406-.43,24.939,24.939,0,0,1-3.2-1.9l-.005,0a4.413,4.413,0,0,0-2.128-1.029,8.175,8.175,0,0,0-.9,2.289c-.583,1.9-1.184,3.869-2.457,4.2a1.436,1.436,0,0,1-.356.046,2.232,2.232,0,0,1-1.5-.745,5.2,5.2,0,0,1-1.354-3.856,7,7,0,0,1-3.3,1.946,1.78,1.78,0,0,1-.2.01,1.412,1.412,0,0,1-1.271-.709,4.355,4.355,0,0,1-.375-2.748,4.566,4.566,0,0,1-2.3.638,4.37,4.37,0,0,1-1.371-.221c-2.138-.706-1.909-2.727-1.741-4.2.077-.681.165-1.448-.059-1.663a.464.464,0,0,0-.335-.108,6.574,6.574,0,0,0-2.237.884,5.118,5.118,0,0,1-1.973.765c-.594,0-1.151-.539-1.568-1.519-.572-1.353-.723-3.169.1-4.021.163-.169.326-.316.523-.491.908-.811,1.625-1.452.687-4.564-.467-1.557-1.3-2.283-2.625-2.283a7.7,7.7,0,0,0-1.667.24l-.018,0a4.459,4.459,0,0,1-.772.141,4.185,4.185,0,0,0-.71.917,3.449,3.449,0,0,1,2.329,1.587c.977,1.562.851,3.928.408,5.621-.375,1.431-1.689,1.629-3.054,1.629h-.553c-.888,0-1.389.062-1.494.392-.022.073-.081.517.985,2.047.734,1.053,1.756,2.277,2.576,3.261l0,0,.009.01c1.591,1.91,2.149,2.621,2.167,3.1s-.511.8-1.085,1.056a34.951,34.951,0,0,1-6.013,1.738,21.494,21.494,0,0,1-3.937.57c-.761,0-.928-.16-1.028-.256-.594-.571-.326-1.8.2-3.911l0-.012v-.005a13.129,13.129,0,0,0,.537-2.966,2.656,2.656,0,0,0-1.053-2.028,3.53,3.53,0,0,0-2.174-.636,7.071,7.071,0,0,0-1.673.219,1.8,1.8,0,0,0-1.182.851c-.971,1.63-.079,5.031.35,6.666l0,.016a6.994,6.994,0,0,1,.258,1.173,1.242,1.242,0,0,1-.562.961,12.747,12.747,0,0,1-6.86,2.174,6.753,6.753,0,0,1-1.467-.148c-1.041-.23-1.952-1.195-2.71-2.868a2.709,2.709,0,0,1-.381.027,3.775,3.775,0,0,1-1.31-.263,6.562,6.562,0,0,1-.9-.426,20.916,20.916,0,0,1-1.746,6.581c-.391.807-.889,1.632-1.611,1.632h-.068c-1-.068-1.486-1.574-2.374-4.309v-.006c-.419-1.294-.938-2.9-1.617-4.561a13.783,13.783,0,0,0-2.063-3.628c.962,2.1,1.063,6.308.237,9.783-.565,2.378-1.789,5.38-4.41,6.178a4.665,4.665,0,0,1-1.344.231,1.936,1.936,0,0,1-1.381-.488c-1.21-1.115-.635-3.746-.079-6.29l0-.015a15.682,15.682,0,0,0,.521-3.392,3.111,3.111,0,0,0-1.655-2.158,8.824,8.824,0,0,0-1.2-.651,23.638,23.638,0,0,1-2.9,2.473c-3.222,2.326-7.283,3.457-12.413,3.457-.709,0-1.456-.021-2.283-.065-1.974,1.32-5.539,2.894-11.306,2.894h-.156a34.625,34.625,0,0,0-14.543,3.5,44.983,44.983,0,0,0-5.34,2.983Zm57.895-25.725h0c-1.428,0-2.524,1.7-4.041,4.058l-.008.013a39.65,39.65,0,0,1-4.183,5.661,8.963,8.963,0,0,1,1.023.576,4.013,4.013,0,0,1,2.1,2.935,16.013,16.013,0,0,1-.544,3.656v.005l0,.011c-.448,2.058-1.006,4.618-.215,5.348a1.044,1.044,0,0,0,.722.225,3.685,3.685,0,0,0,1.046-.187c.982-.3,2.774-1.407,3.739-5.464.961-4.038.5-8.723-.552-9.725-.692-.662-.947-1.187-.782-1.6a.658.658,0,0,1,.629-.4c.909,0,2.876,1.687,4.4,5.436.679,1.665,1.187,3.23,1.634,4.612l.005.016,0,.01.006.02,0,.007c.492,1.513,1.1,3.4,1.491,3.594.063-.031.3-.2.724-1.069a19.873,19.873,0,0,0,1.706-6.747,19.09,19.09,0,0,1-4.035-4.114,8.96,8.96,0,0,1-1.937-4.055c-.016-.356-.065-1.439.667-1.774a1.008,1.008,0,0,1,.42-.089c.952,0,2.239,1.188,4.261,3.125,1.2,1.152,1.781,3.426,1.636,6.4a6.224,6.224,0,0,0,1.165.6,2.844,2.844,0,0,0,.958.2,35.93,35.93,0,0,1-1.64-8.695c-.028-.593.278-.781.464-.839l.005,0a.645.645,0,0,1,.188-.031c.451,0,1.032.57,1.728,1.7,1.276,2.065,2.914,6.1.96,8.146a2.365,2.365,0,0,1-.389.329c.6,1.339,1.27,2.1,2,2.262a5.764,5.764,0,0,0,1.24.122,11.653,11.653,0,0,0,3.6-.651,6.905,6.905,0,0,0,2.845-1.5c-.022-.154-.122-.538-.2-.819l0-.013-.026-.105c-.5-1.9-1.427-5.44-.244-7.422a2.772,2.772,0,0,1,1.8-1.305,8.157,8.157,0,0,1,1.905-.248,4.484,4.484,0,0,1,2.769.835,3.644,3.644,0,0,1,1.446,2.777,13.6,13.6,0,0,1-.556,3.208V-230l0,.018,0,.01,0,.019,0,.014a9.979,9.979,0,0,0-.48,2.913,1.727,1.727,0,0,0,.3.021,26.286,26.286,0,0,0,5.006-.831,22.388,22.388,0,0,0,5.033-1.621,25.59,25.59,0,0,0-1.868-2.389l-.01-.012c-2.512-3.013-4.131-5.077-3.755-6.256.315-1,1.361-1.08,2.4-1.08h.539c1.081,0,1.925-.066,2.142-.891.392-1.492.521-3.549-.291-4.847a2.45,2.45,0,0,0-1.7-1.144,1.633,1.633,0,0,0-.328-.036c-.022,0-.043,0-.065,0-1.174,1.846-2.949,4.635-5.092,4.637-2.39,0-3.407-4.839-4.319-10.228l0-.013-.005-.031a25.88,25.88,0,0,0-.521-2.649.922.922,0,0,0-.27-.031,11.989,11.989,0,0,0-3.185.74c-1.78.573-3.873,1.388-5.555,2.042l-.031.012-.01,0-.087.034-.176.069-.048.019c-.578.225-1.077.419-1.508.581,1.26,1.364,1.711,2.172,1.51,2.7a.82.82,0,0,1-.854.5,8.422,8.422,0,0,1-1.594-.255c3.725,2.293,5,4.892,3.8,7.723-.675,1.583-2.819,2.352-6.556,2.352a68.728,68.728,0,0,1-8.319-.721l-.046-.006h-.008C5734.25-238.839,5732.733-239.033,5731.895-239.035Zm-26.631,15.184-.553.03-.1.006-.393.021-.048,0-.279.015c.38.031.746.058,1.152.083l.043-.03.1-.072.017-.013.058-.042Zm38.058-12.007h0a33.855,33.855,0,0,0,1.547,7.754l.023-.023.02-.02.016-.016a3.452,3.452,0,0,0,.517-2.947,12.451,12.451,0,0,0-2.123-4.748Zm-7.412-1.24h0a1.533,1.533,0,0,0-.095.827c.044.917,1.041,2.7,2.48,4.447a18.422,18.422,0,0,0,2.557,2.57c.025-2.355-.456-4.129-1.357-4.994l-.057-.053-.018-.017c-.823-.788-1.6-1.532-2.273-2.068-.83-.661-1.147-.712-1.225-.712h-.012Zm43.707-1.006a1.4,1.4,0,0,1,1.006.384c.572.553.466,1.491.353,2.484-.186,1.631-.211,2.732,1.071,3.158a3.373,3.373,0,0,0,1.056.171,3.639,3.639,0,0,0,2.188-.756,4.225,4.225,0,0,0,.4-.343,17.285,17.285,0,0,1,1.293-3.358,6.178,6.178,0,0,0-1.121-2.272,6.6,6.6,0,0,1-3.106-1.431,3.382,3.382,0,0,1-1.112-2.456,2.74,2.74,0,0,1,.4-1.584,1.833,1.833,0,0,1-.114-1.247,1.326,1.326,0,0,1,.986-.847,18.6,18.6,0,0,1,4.061-.479h.011c1.927-.09,3.92-.184,4.751-1.041a1.43,1.43,0,0,0,.233-1.64,3.581,3.581,0,0,0-3.1-2.026,3.343,3.343,0,0,0-1.907.466l-.007,0a.959.959,0,0,1-.463.162.537.537,0,0,1-.263-.07l-.026-.015a7.671,7.671,0,0,1-5,3.822,18.2,18.2,0,0,1-3.422.509,2.617,2.617,0,0,1-2.087-.811,5.994,5.994,0,0,1,.38.976c1.038,3.448.251,4.489-.975,5.584l-.019.017-.016.014c-.146.131-.3.267-.436.408-.394.409-.392,1.6,0,2.7.307.852.667,1.157.756,1.166a5.568,5.568,0,0,0,1.5-.645l.01-.005A6.729,6.729,0,0,1,5779.617-238.1Zm14.3,1.261c-.226.032-.906.769-1.529,2.4a13.132,13.132,0,0,0-.461,1.458,11.672,11.672,0,0,0,1.9-3.112c.178-.508.121-.717.1-.742Zm11.1,3.37a3.635,3.635,0,0,0,1.649.4,3.869,3.869,0,0,0,.721-.07C5806.365-233.3,5805.59-233.411,5805.017-233.473Zm-17.833-4.933h0a8.155,8.155,0,0,1,.453.865c.179-.294.341-.544.5-.764-.354-.03-.673-.065-.948-.1Zm3.536-.964a.853.853,0,0,0-.435.175c.225,0,.434.006.678.006.647,0,1.355-.013,2.3-.043C5792.111-239.32,5791.232-239.369,5790.72-239.37Zm-8.062-3.6h0a1.939,1.939,0,0,0-.024.411,2.4,2.4,0,0,0,.8,1.767,4.406,4.406,0,0,0,1.488.856c-.134-.175-.277-.361-.464-.6l-.151-.2c-.59-.76-1.2-1.546-1.645-2.235Zm-24.134-12.438c.641,0,1.014.19,1.172.6a19.667,19.667,0,0,1,.589,2.845l0,.014,0,.027v.007l.009.05a51.994,51.994,0,0,0,1.329,6.273c.834,2.723,1.62,3.133,2.014,3.134a1.639,1.639,0,0,0,.482-.076,1.4,1.4,0,0,1-.162-.136c-.8-.773-1.28-3.44-1.97-7.739-.346-2.16-.82-5.117-1.207-5.728a16.786,16.786,0,0,0-2.35.733h.086Zm25.1,10.047c-.168.037-.307.071-.437.108-.181.05-.287.12-.317.208a.439.439,0,0,0-.018.111A4.339,4.339,0,0,1,5783.625-245.361Zm-11.793-5.884c1.648,0,2.781.5,3.368,1.477.763,1.27,1.191,1.944,1.844,2.167a2.417,2.417,0,0,0,.78.107,17.461,17.461,0,0,0,3.177-.491c2.49-.53,3.56-2.152,4.595-3.721.126-.191.221-.334.309-.464.04-.607.215-1.619.5-3.214l0-.021,0-.013a33.119,33.119,0,0,0,.695-5.384c-.822-.015-2.864-.093-5.9-.224l-.165-.007a.492.492,0,0,1-.4-.242.5.5,0,0,1-.019-.47c.068-.139,1.646-3.419-.822-4.835a2.841,2.841,0,0,0-1.434-.362,5.055,5.055,0,0,0-3.69,1.833c-.23.3-.562.866-.2,1.21.432.421.8.721,1.1.963l.007.007c.551.45.915.748.943,1.218a1.228,1.228,0,0,1-.411.887c-.385.4-1.668.892-4.5,1.91l-.032.011c-1.987.715-4.708,1.694-5.142,2.147-.045.045-.43.533-.017,3.715.149,1.151.35,2.234.457,2.778a20.052,20.052,0,0,1,3.075-.8A11.3,11.3,0,0,1,5771.832-251.245Zm-49.593-3.092c-1.359,0-1.664.252-1.711.3.029.178.506.734,1.8,1.311a10.914,10.914,0,0,0,4.31.94c3.047,0,5.792.1,8.159.307-4.586-1.331-10.158-2.861-12.551-2.861Zm28.629-6.614a3.925,3.925,0,0,0-2.787,1.056,2.56,2.56,0,0,0-.722,2.637,8.388,8.388,0,0,1-.089,5.526c.588-.218,1.373-.524,2-.77l.031-.012.087-.034c1.342-.523,3.011-1.174,4.552-1.71a.536.536,0,0,1-.15-.354,2.433,2.433,0,0,1,.135-.687c.557-2.11.9-4.628-1.368-5.377A5.462,5.462,0,0,0,5750.868-260.951Z" transform="translate(-5629 334)" fill="#fff"></path></g></svg> 