<svg xmlns="http://www.w3.org/2000/svg" xmlns:xlink="http://www.w3.org/1999/xlink" width="38.027" height="44.365" viewBox="0 0 38.027 44.365">
  <defs>
    <linearGradient id="linear-gradient" x1="0.5" x2="0.5" y2="1" gradientUnits="objectBoundingBox">
      <stop offset="0" stop-color="#03a586"/>
      <stop offset="0.151" stop-color="#1dc9a7"/>
      <stop offset="1" stop-color="#028772"/>
    </linearGradient>
  </defs>
  <g id="instagram" transform="translate(9.735 12.735)">
    <g id="Polygon_19" data-name="Polygon 19" transform="translate(28.292 -12.735) rotate(90)" fill="none">
      <path d="M30.4,0a5,5,0,0,1,4.319,2.481L42.9,16.494a5,5,0,0,1,0,5.039L34.721,35.547A5,5,0,0,1,30.4,38.027H13.963a5,5,0,0,1-4.319-2.481L1.47,21.533a5,5,0,0,1,0-5.039L9.644,2.481A5,5,0,0,1,13.963,0Z" stroke="none"/>
      <path d="M 13.96315956115723 1 C 12.5460205078125 1 11.22209930419922 1.760421752929688 10.50804138183594 2.984512329101562 L 2.333400726318359 16.99818229675293 C 1.608200073242188 18.24138259887695 1.608200073242188 19.78595161437988 2.333400726318359 21.02915191650391 L 10.50804138183594 35.04283142089844 C 11.22208786010742 36.26692199707031 12.5460090637207 37.02734375 13.96315956115723 37.02734375 L 30.40205955505371 37.02734375 C 31.81921005249023 37.02734375 33.14312744140625 36.26692199707031 33.85717010498047 35.04282379150391 L 42.03181838989258 21.02915191650391 C 42.75701904296875 19.78596115112305 42.75701904296875 18.24138259887695 42.03181838989258 16.99819183349609 L 33.85717010498047 2.984512329101562 C 33.14312744140625 1.760421752929688 31.81921005249023 1 30.40205955505371 1 L 13.96315956115723 1 M 13.96315956115723 0 L 30.40205955505371 0 C 32.18040084838867 0 33.82490921020508 0.9445533752441406 34.720947265625 2.480640411376953 L 42.89559936523438 16.49432182312012 C 43.80374145507812 18.05113220214844 43.80374145507812 19.97621154785156 42.89559936523438 21.53302192687988 L 34.720947265625 35.54669189453125 C 33.82490921020508 37.08279037475586 32.18040084838867 38.02734375 30.40205955505371 38.02734375 L 13.96315956115723 38.02734375 C 12.18481826782227 38.02734375 10.54030990600586 37.08279037475586 9.644260406494141 35.54670333862305 L 1.469619750976562 21.53302192687988 C 0.5614776611328125 19.97621154785156 0.5614776611328125 18.05112266540527 1.469619750976562 16.49431228637695 L 9.644260406494141 2.480640411376953 C 10.54032135009766 0.9445533752441406 12.18481826782227 0 13.96315956115723 0 Z" stroke="none" fill="#05a687"/>
    </g>
    <path id="instagram-2" data-name="instagram" d="M12.353,9.265A3.089,3.089,0,0,0,9.265,6.176,3.089,3.089,0,0,0,6.176,9.265a3.089,3.089,0,0,0,3.088,3.088,3.089,3.089,0,0,0,3.088-3.088Zm1.665,0a4.736,4.736,0,0,1-4.753,4.753A4.736,4.736,0,0,1,4.512,9.265,4.736,4.736,0,0,1,9.265,4.512a4.736,4.736,0,0,1,4.753,4.753Zm1.3-4.946a1.11,1.11,0,1,1-1.894-.784,1.11,1.11,0,0,1,1.894.784ZM9.265,1.665l-.923-.006q-.838-.006-1.273,0T5.9,1.694a9.513,9.513,0,0,0-1.242.12,4.794,4.794,0,0,0-.862.224A3.155,3.155,0,0,0,2.039,3.8a4.841,4.841,0,0,0-.223.863,9.513,9.513,0,0,0-.12,1.242q-.03.73-.036,1.164t0,1.273q.006.838.006.923t-.006.923q-.006.838,0,1.273t.036,1.164a9.513,9.513,0,0,0,.12,1.242,4.812,4.812,0,0,0,.223.862A3.155,3.155,0,0,0,3.8,16.491a4.841,4.841,0,0,0,.863.223,9.514,9.514,0,0,0,1.242.12q.73.03,1.164.036t1.273,0l.923-.006.923.006q.838.006,1.273,0t1.164-.036a9.513,9.513,0,0,0,1.242-.12,4.841,4.841,0,0,0,.863-.223,3.155,3.155,0,0,0,1.761-1.761,4.841,4.841,0,0,0,.223-.863,9.514,9.514,0,0,0,.12-1.242q.03-.73.036-1.164t0-1.273q-.006-.838-.006-.923t.006-.923q.006-.838,0-1.273T16.835,5.9a9.512,9.512,0,0,0-.12-1.242,4.748,4.748,0,0,0-.224-.862,3.155,3.155,0,0,0-1.761-1.761,4.841,4.841,0,0,0-.863-.223,9.513,9.513,0,0,0-1.242-.12q-.73-.03-1.164-.036t-1.273,0l-.923.006Zm9.265,7.6q0,2.762-.06,3.824a5.658,5.658,0,0,1-1.5,3.884,5.658,5.658,0,0,1-3.884,1.5q-1.062.06-3.824.06t-3.824-.06a5.658,5.658,0,0,1-3.884-1.5,5.658,5.658,0,0,1-1.5-3.884Q0,12.027,0,9.265T.06,5.44a5.658,5.658,0,0,1,1.5-3.884A5.658,5.658,0,0,1,5.44.06Q6.5,0,9.265,0t3.824.06a5.658,5.658,0,0,1,3.884,1.5,5.658,5.658,0,0,1,1.5,3.884Q18.529,6.5,18.529,9.265Z" fill="url(#linear-gradient)"/>
  </g>
</svg>
