<?xml version="1.0" encoding="UTF-8"?> <svg xmlns="http://www.w3.org/2000/svg" xmlns:xlink="http://www.w3.org/1999/xlink" width="34.176" height="65.117" viewBox="0 0 34.176 65.117"><defs><linearGradient id="linear-gradient" x1="0.5" x2="0.5" y2="1" gradientUnits="objectBoundingBox"><stop offset="0" stop-color="#025750"></stop><stop offset="1" stop-color="#03a687"></stop></linearGradient></defs><path id="ios-phone-portrait" d="M39.386,2.25H15.177a4.91,4.91,0,0,0-5.052,4.781V62.409a5.045,5.045,0,0,0,5.052,4.957H39.371a4.938,4.938,0,0,0,4.93-4.957V7.031A4.779,4.779,0,0,0,39.386,2.25ZM24.93,5.593h4.578a.582.582,0,1,1,0,1.162H24.93a.582.582,0,1,1,0-1.162ZM27.3,65.186a2.531,2.531,0,1,1,2.655-2.528A2.6,2.6,0,0,1,27.3,65.186Zm14.271-7.121H12.873a.3.3,0,0,1-.306-.291V9.954a.3.3,0,0,1,.306-.291h28.7a.3.3,0,0,1,.306.291v47.82a.3.3,0,0,1-.306.291Z" transform="translate(-10.125 -2.25)" fill="url(#linear-gradient)"></path></svg> 