<?xml version="1.0" encoding="UTF-8"?> <svg xmlns="http://www.w3.org/2000/svg" xmlns:xlink="http://www.w3.org/1999/xlink" width="39.371" height="52.959" viewBox="0 0 39.371 52.959"><defs><linearGradient id="linear-gradient" x1="0.5" x2="0.5" y2="1" gradientUnits="objectBoundingBox"><stop offset="0" stop-color="#025750"></stop><stop offset="1" stop-color="#03a687"></stop></linearGradient></defs><g id="location-pin" transform="translate(-5.627 -1.238)"><path id="Path_8211" data-name="Path 8211" d="M20.6,8.971a7.244,7.244,0,1,0,7.244,7.244A7.244,7.244,0,0,0,20.6,8.971Zm0,10.866a3.622,3.622,0,1,1,3.622-3.622A3.622,3.622,0,0,1,20.6,19.837Z" transform="translate(4.712 4.716)" fill="url(#linear-gradient)"></path><path id="Path_8212" data-name="Path 8212" d="M39.231,7A19.687,19.687,0,0,0,8.816,31.665L22.5,52.675a3.353,3.353,0,0,0,5.618,0l13.687-21.01A19.687,19.687,0,0,0,39.232,7Zm-.46,22.689L25.31,50.352,11.851,29.689a16.064,16.064,0,1,1,26.919,0Z" transform="translate(0 0)" fill="url(#linear-gradient)"></path></g></svg> 