<svg xmlns="http://www.w3.org/2000/svg" xmlns:xlink="http://www.w3.org/1999/xlink" width="82.027" height="92.365" viewBox="0 0 82.027 92.365">
  <defs>
    <linearGradient id="linear-gradient" y1="0.5" x2="1" y2="0.5" gradientUnits="objectBoundingBox">
      <stop offset="0" stop-color="#025750"/>
      <stop offset="1" stop-color="#03a687"/>
    </linearGradient>
    <filter id="Polygon_2" x="0" y="0" width="82.027" height="92.365" filterUnits="userSpaceOnUse">
      <feOffset dy="5" input="SourceAlpha"/>
      <feGaussianBlur stdDeviation="3" result="blur"/>
      <feFlood flood-opacity="0.161"/>
      <feComposite operator="in" in2="blur"/>
      <feComposite in="SourceGraphic"/>
    </filter>
  </defs>
  <g id="Group_77" data-name="Group 77" transform="translate(-1804 -5123)">
    <g transform="matrix(1, 0, 0, 1, 1804, 5123)" filter="url(#Polygon_2)">
      <path id="Polygon_2-2" data-name="Polygon 2" d="M51.169,0a8,8,0,0,1,6.918,3.982L72.032,28a8,8,0,0,1,0,8.035L58.087,60.045a8,8,0,0,1-6.918,3.982H23.2a8,8,0,0,1-6.918-3.982L2.333,36.031a8,8,0,0,1,0-8.035L16.279,3.982A8,8,0,0,1,23.2,0Z" transform="translate(73.03 4) rotate(90)" fill="url(#linear-gradient)"/>
    </g>
    <path id="arrow-right" d="M12.041,8.534,10.989,9.586l4.463,4.463H3.74v1.488H15.452L10.989,20l1.052,1.052L18.3,14.793Z" transform="translate(1830.466 5175.299) rotate(-90)" fill="#fff"/>
  </g>
</svg>
