<svg xmlns="http://www.w3.org/2000/svg" xmlns:xlink="http://www.w3.org/1999/xlink" width="38.027" height="44.365" viewBox="0 0 38.027 44.365">
  <defs>
    <linearGradient id="linear-gradient" x1="0.5" x2="0.5" y2="1" gradientUnits="objectBoundingBox">
      <stop offset="0" stop-color="#03a586"/>
      <stop offset="0.151" stop-color="#1dc9a7"/>
      <stop offset="1" stop-color="#028772"/>
    </linearGradient>
  </defs>
  <g id="youtube" transform="translate(14 -114.224)">
    <g id="Polygon_20" data-name="Polygon 20" transform="translate(24.027 114.224) rotate(90)" fill="none">
      <path d="M30.4,0a5,5,0,0,1,4.319,2.481L42.9,16.494a5,5,0,0,1,0,5.039L34.721,35.547A5,5,0,0,1,30.4,38.027H13.963a5,5,0,0,1-4.319-2.481L1.47,21.533a5,5,0,0,1,0-5.039L9.644,2.481A5,5,0,0,1,13.963,0Z" stroke="none"/>
      <path d="M 13.96315956115723 1 C 12.5460205078125 1 11.22209930419922 1.760421752929688 10.50804138183594 2.984512329101562 L 2.333400726318359 16.99818229675293 C 1.608200073242188 18.24138259887695 1.608200073242188 19.78595161437988 2.333400726318359 21.02915191650391 L 10.50804138183594 35.04283142089844 C 11.22208786010742 36.26692199707031 12.5460090637207 37.02734375 13.96315956115723 37.02734375 L 30.40205955505371 37.02734375 C 31.81921005249023 37.02734375 33.14312744140625 36.26692199707031 33.85717010498047 35.04282379150391 L 42.03181838989258 21.02915191650391 C 42.75701904296875 19.78596115112305 42.75701904296875 18.24138259887695 42.03181838989258 16.99819183349609 L 33.85717010498047 2.984512329101562 C 33.14312744140625 1.760421752929688 31.81921005249023 1 30.40205955505371 1 L 13.96315956115723 1 M 13.96315956115723 0 L 30.40205955505371 0 C 32.18040084838867 0 33.82490921020508 0.9445533752441406 34.720947265625 2.480640411376953 L 42.89559936523438 16.49432182312012 C 43.80374145507812 18.05113220214844 43.80374145507812 19.97621154785156 42.89559936523438 21.53302192687988 L 34.720947265625 35.54669189453125 C 33.82490921020508 37.08279037475586 32.18040084838867 38.02734375 30.40205955505371 38.02734375 L 13.96315956115723 38.02734375 C 12.18481826782227 38.02734375 10.54030990600586 37.08279037475586 9.644260406494141 35.54670333862305 L 1.469619750976562 21.53302192687988 C 0.5614776611328125 19.97621154785156 0.5614776611328125 18.05112266540527 1.469619750976562 16.49431228637695 L 9.644260406494141 2.480640411376953 C 10.54032135009766 0.9445533752441406 12.18481826782227 0 13.96315956115723 0 Z" stroke="none" fill="#05a687"/>
    </g>
    <path id="youtube-2" data-name="youtube" d="M10.765,13.47v2.285q0,.726-.422.726a.7.7,0,0,1-.487-.238V12.983a.7.7,0,0,1,.487-.238q.422,0,.422.726Zm3.66.011v.5H13.45v-.5q0-.736.487-.736t.487.736Zm-10.46-2.36H5.124V10.1H1.744v1.018H2.881v6.161H3.964V11.121Zm3.119,6.161h.964V11.933H7.083v4.093q-.325.455-.617.455-.2,0-.227-.227a3.024,3.024,0,0,1-.011-.379V11.933H5.264v4.234a2.677,2.677,0,0,0,.087.791.583.583,0,0,0,.628.4,1.586,1.586,0,0,0,1.1-.66v.585Zm4.645-1.6V13.546a3.846,3.846,0,0,0-.1-1.072.752.752,0,0,0-.769-.606,1.3,1.3,0,0,0-1.007.585V10.1H8.892v7.179h.964v-.52a1.343,1.343,0,0,0,1.007.6.749.749,0,0,0,.769-.6,3.975,3.975,0,0,0,.1-1.083Zm3.66-.108v-.141H14.4a5.375,5.375,0,0,1-.022.66.415.415,0,0,1-.433.39q-.5,0-.5-.747v-.942h1.938V13.676A2.149,2.149,0,0,0,15.1,12.42a1.48,1.48,0,0,0-2.306,0,2.087,2.087,0,0,0-.3,1.256v1.873a2.032,2.032,0,0,0,.314,1.256,1.389,1.389,0,0,0,1.17.552,1.341,1.341,0,0,0,1.4-1.159,4.788,4.788,0,0,0,.022-.628ZM8.8,5.685V3.411q0-.747-.466-.747t-.466.747V5.685q0,.758.466.758T8.8,5.685Zm7.786,8.132a18.771,18.771,0,0,1-.281,3.79,2.057,2.057,0,0,1-.628,1.072,1.892,1.892,0,0,1-1.1.5,57.879,57.879,0,0,1-6.01.227,57.879,57.879,0,0,1-6.01-.227,1.922,1.922,0,0,1-1.11-.5,1.977,1.977,0,0,1-.623-1.072,18.385,18.385,0,0,1-.281-3.79,18.771,18.771,0,0,1,.281-3.79,2.057,2.057,0,0,1,.628-1.072,1.961,1.961,0,0,1,1.115-.509q1.981-.217,6-.217t6.01.217a2.033,2.033,0,0,1,1.732,1.581,18.386,18.386,0,0,1,.281,3.79ZM5.784,0h1.1L5.578,4.321V7.255H4.5V4.321a18.311,18.311,0,0,0-.66-2.3Q3.434.91,3.131,0H4.278l.769,2.848ZM9.79,3.606V5.5a2.134,2.134,0,0,1-.3,1.278,1.349,1.349,0,0,1-1.148.552A1.338,1.338,0,0,1,7.2,6.779,2.163,2.163,0,0,1,6.9,5.5v-1.9a2.109,2.109,0,0,1,.3-1.267,1.338,1.338,0,0,1,1.137-.552,1.349,1.349,0,0,1,1.148.552A2.109,2.109,0,0,1,9.79,3.606Zm3.628-1.754v5.4h-.985v-.6a1.559,1.559,0,0,1-1.115.672.6.6,0,0,1-.639-.4,2.774,2.774,0,0,1-.087-.812V1.852h.985V5.826a2.847,2.847,0,0,0,.011.379q.032.238.227.238.292,0,.617-.466V1.852h.985Z" transform="translate(-3.567 126.613)" fill="url(#linear-gradient)"/>
  </g>
</svg>
